<svg width="420" height="52" viewBox="0 0 420 52" fill="none" xmlns="http://www.w3.org/2000/svg">
<g clip-path="url(#clip0_252_3022)">
<path d="M246.028 44.9371C244.207 47.1479 241.615 48.8667 238.265 50.1003C234.914 51.334 231.196 51.9646 227.102 51.9924C222.814 52.0201 219.039 51.1122 215.794 49.2687C212.548 47.4251 210.032 44.7291 208.245 41.1876C206.459 37.6461 205.528 33.4739 205.451 28.671L205.43 25.3097C205.396 20.3751 206.202 16.0921 207.849 12.4743C209.496 8.84962 211.88 6.07047 215.015 4.13684C218.15 2.20321 221.827 1.21907 226.046 1.19135C231.926 1.14977 236.534 2.51509 239.87 5.29424C243.206 8.06647 245.194 12.1278 245.848 17.4643L235.901 17.5336C235.429 14.7059 234.407 12.6406 232.843 11.3377C231.279 10.0347 229.132 9.39021 226.407 9.411C222.932 9.43179 220.297 10.7555 218.497 13.3683C216.697 15.9881 215.807 19.8623 215.821 25.0048L215.842 28.1651C215.877 33.3492 216.892 37.258 218.887 39.8985C220.881 42.5322 223.787 43.842 227.596 43.8143C231.432 43.7866 234.164 42.9549 235.79 41.3124L235.735 32.7878L226.435 32.8502L226.386 25.3444L245.903 25.2127L246.035 44.944L246.028 44.9371Z" fill="#0099D9"/>
<path d="M330.415 40.4252L312.496 40.55L309.16 50.7587L298.296 50.8349L316.416 1.26062L325.883 1.19824L344.782 50.523L333.918 50.5993L330.408 40.4321L330.415 40.4252ZM315.2 32.2749L327.6 32.1917L321.24 13.7218L315.2 32.2749Z" fill="#0099D9"/>
<path d="M358.043 42.2411L379.743 42.0956L379.798 50.2806L347.882 50.4954L347.541 1.04587L357.758 0.976562L358.043 42.2411Z" fill="#0099D9"/>
<path d="M409.748 37.0989C409.734 35.1722 409.046 33.7029 407.677 32.6772C406.308 31.6584 403.847 30.5842 400.295 29.4684C396.744 28.3526 393.936 27.2437 391.857 26.1486C386.207 23.1546 383.364 19.0864 383.329 13.9439C383.308 11.2757 384.052 8.88461 385.546 6.77772C387.041 4.67083 389.202 3.02135 392.017 1.82236C394.839 0.623377 398.009 0.0134876 401.526 -0.00730404C405.07 -0.0280957 408.226 0.588724 411.006 1.85009C413.786 3.11145 415.948 4.89953 417.498 7.22127C419.048 9.54301 419.833 12.1836 419.854 15.1498L409.637 15.2191C409.623 12.9528 408.893 11.1994 407.454 9.95191C406.016 8.70441 404 8.08759 401.414 8.10838C398.919 8.12224 396.98 8.66283 395.604 9.73013C394.227 10.7905 393.539 12.1836 393.553 13.9023C393.567 15.5102 394.387 16.8548 396.014 17.929C397.647 19.0032 400.038 20.0082 403.208 20.9369C409.032 22.6418 413.279 24.7764 415.955 27.3407C418.631 29.905 419.979 33.1069 420.007 36.9603C420.035 41.2365 418.436 44.6047 415.204 47.0651C411.972 49.5185 407.614 50.766 402.116 50.8076C398.301 50.8353 394.825 50.163 391.677 48.7908C388.535 47.4185 386.13 45.5265 384.469 43.1147C382.808 40.7028 381.967 37.9029 381.939 34.7079L392.191 34.6386C392.226 40.0929 395.513 42.8028 402.054 42.7543C404.487 42.7404 406.377 42.2345 407.732 41.2365C409.088 40.2454 409.762 38.8593 409.748 37.0989Z" fill="#0099D9"/>
<path d="M262.598 19.3433C263.224 18.283 263.981 17.3127 264.857 16.4464L257.462 8.3584C255.599 10.1326 254.014 12.191 252.763 14.4573L262.605 19.3433H262.598Z" fill="#28A838"/>
<path d="M280.739 13.6259C281.858 14.1388 282.901 14.7902 283.839 15.5665L291.255 7.49235C289.302 5.81516 287.085 4.42211 284.68 3.40332L280.732 13.6328L280.739 13.6259Z" fill="#D7A600"/>
<path d="M297.726 16.0577L287.891 20.9438C288.364 22.0388 288.697 23.1962 288.878 24.409L299.818 23.3764C299.498 20.7913 298.776 18.3309 297.726 16.0508" fill="#C60F28"/>
<path d="M287.189 19.5306L297.024 14.6446C295.808 12.3852 294.251 10.3407 292.43 8.55957L285.014 16.6337C285.862 17.5 286.591 18.4703 287.196 19.5306" fill="#00973B"/>
<path d="M260.645 26.496C260.645 26.2742 260.652 26.0524 260.659 25.8376L249.719 24.8604C249.684 25.4009 249.663 25.9485 249.663 26.496C249.663 28.589 249.92 30.6197 250.407 32.5671L260.972 29.5454C260.756 28.5613 260.638 27.5425 260.638 26.5029" fill="#427935"/>
<path d="M285.813 35.4639C285.035 36.4064 284.138 37.252 283.144 37.9658L288.92 47.2943C291.061 45.8458 292.972 44.0786 294.578 42.0548L285.813 35.4639Z" fill="#FABD00"/>
<path d="M289.031 26.4956C289.031 27.5283 288.92 28.5332 288.705 29.5035L299.269 32.5321C299.749 30.5985 300.006 28.5748 300.006 26.4956C300.006 25.9758 299.992 25.463 299.958 24.957L289.017 25.9897C289.017 26.163 289.024 26.3293 289.024 26.5025" fill="#E83819"/>
<path d="M264.044 35.6719L255.3 42.2975C256.927 44.2935 258.852 46.0331 261.014 47.4538L266.79 38.1392C265.775 37.4392 264.85 36.6075 264.051 35.6719" fill="#F5A200"/>
<path d="M260.826 24.2641C261.021 23.0305 261.382 21.8523 261.876 20.7503L252.047 15.8643C250.963 18.1721 250.219 20.6671 249.879 23.28L260.833 24.2572L260.826 24.2641Z" fill="#0075BA"/>
<path d="M287.578 48.1399L281.809 38.8252C280.76 39.4143 279.634 39.8786 278.445 40.1905L280.482 50.9675C283.012 50.3854 285.403 49.422 287.578 48.1399Z" fill="#970B31"/>
<path d="M288.287 31.0352C287.905 32.158 287.39 33.2114 286.751 34.1887L295.523 40.7865C296.947 38.742 298.073 36.4827 298.845 34.057L288.287 31.0283V31.0352Z" fill="#00A6D9"/>
<path d="M276.889 40.502C276.221 40.599 275.54 40.6475 274.838 40.6475C274.282 40.6475 273.726 40.6128 273.184 40.5505L271.147 51.3275C272.35 51.5008 273.58 51.5978 274.831 51.5978C276.221 51.5978 277.584 51.4869 278.911 51.2651L276.875 40.502H276.889Z" fill="#ED6A02"/>
<path d="M275.749 12.3713C276.965 12.4475 278.146 12.6832 279.259 13.0505L283.206 2.82097C280.857 1.99623 278.355 1.50416 275.749 1.41406V12.3713Z" fill="#E5001E"/>
<path d="M271.62 40.2875C270.39 40.0034 269.222 39.5529 268.138 38.9707L262.355 48.2923C264.579 49.5606 267.012 50.5032 269.584 51.0507L271.613 40.2875H271.62Z" fill="#DC007A"/>
<path d="M270.577 13.0021C271.717 12.6417 272.92 12.4268 274.164 12.3644V1.40723C271.523 1.47653 268.986 1.95474 266.602 2.77948L270.577 13.0021Z" fill="#003067"/>
<path d="M263.078 34.4168C262.383 33.3911 261.813 32.2683 261.403 31.0693L250.845 34.0911C251.644 36.5999 252.833 38.9425 254.334 41.0424L263.078 34.4168Z" fill="#D39200"/>
<path d="M266.046 15.3999C266.977 14.6653 267.992 14.0484 269.09 13.5633L265.121 3.34766C262.758 4.33873 260.576 5.67632 258.644 7.30501L266.046 15.3999Z" fill="#004C88"/>
<path d="M11.5728 17.479C11.5728 16.7375 11.3086 16.1553 10.7804 15.7395C10.2522 15.3236 9.32773 14.8939 8.00018 14.4504C6.67263 14.0068 5.58835 13.5771 4.74733 13.1613C2.00882 11.8168 0.639564 9.97324 0.639564 7.63071C0.639564 6.46637 0.98014 5.43372 1.66129 4.53968C2.34245 3.64564 3.30857 2.95258 4.55967 2.45358C5.81076 1.95458 7.21477 1.70508 8.77169 1.70508C10.3286 1.70508 11.6562 1.97537 12.8586 2.51595C14.061 3.05654 14.9994 3.82583 15.6666 4.82383C16.3339 5.82183 16.6675 6.96537 16.6675 8.24753H11.5867C11.5867 7.38814 11.3225 6.7228 10.7943 6.25153C10.2661 5.78025 9.55015 5.54461 8.65353 5.54461C7.75691 5.54461 7.02711 5.74559 6.49887 6.14757C5.97062 6.54954 5.7065 7.05547 5.7065 7.67229C5.7065 8.21287 5.99843 8.70494 6.57532 9.14157C7.15917 9.57819 8.17394 10.0356 9.64051 10.5C11.1001 10.9712 12.3026 11.4702 13.2409 12.0108C15.5276 13.3207 16.6675 15.1365 16.6675 17.4444C16.6675 19.2879 15.9724 20.7364 14.5754 21.7898C13.1783 22.8433 11.2669 23.37 8.8412 23.37C7.12441 23.37 5.57444 23.0651 4.18434 22.4482C2.79423 21.8384 1.75165 20.9928 1.04965 19.9255C0.347641 18.8582 -0.00683594 17.6315 -0.00683594 16.2385H5.10181C5.10181 17.3681 5.39373 18.1998 5.97758 18.7335C6.56142 19.2671 7.51364 19.5374 8.83424 19.5374C9.67526 19.5374 10.3425 19.3572 10.829 18.9968C11.3156 18.6364 11.5589 18.1236 11.5589 17.4721L11.5728 17.479Z" fill="#0099D9"/>
<path d="M36.1637 2.00293V15.8017C36.1637 17.368 35.8301 18.7194 35.1629 19.863C34.4956 21.0065 33.5364 21.8798 32.2853 22.4758C31.0342 23.0718 29.5607 23.3768 27.8578 23.3768C25.2792 23.3768 23.2566 22.7114 21.7761 21.3808C20.2957 20.0501 19.5381 18.2274 19.5103 15.9056V2.00293H24.6397V16.0027C24.6954 18.3105 25.7727 19.461 27.8648 19.461C28.9213 19.461 29.7206 19.1699 30.2627 18.5947C30.8049 18.0125 31.0759 17.0769 31.0759 15.774V2.00293H36.1707H36.1637Z" fill="#0099D9"/>
<path d="M50.5513 17.479C50.5513 16.7375 50.2871 16.1553 49.7589 15.7395C49.2307 15.3236 48.3062 14.8939 46.9787 14.4504C45.6511 14.0068 44.5669 13.5771 43.7258 13.1613C40.9873 11.8168 39.6181 9.97324 39.6181 7.63071C39.6181 6.46637 39.9587 5.43372 40.6398 4.53968C41.321 3.64564 42.2871 2.95258 43.5382 2.45358C44.7893 1.95458 46.1933 1.70508 47.7502 1.70508C49.3071 1.70508 50.6347 1.97537 51.8371 2.51595C53.0396 3.05654 53.9779 3.82583 54.6451 4.82383C55.3124 5.82183 55.646 6.96537 55.646 8.24753H50.5652C50.5652 7.38814 50.3011 6.7228 49.7728 6.25153C49.2446 5.78025 48.5287 5.54461 47.632 5.54461C46.7354 5.54461 46.0056 5.74559 45.4774 6.14757C44.9491 6.54954 44.685 7.05547 44.685 7.67229C44.685 8.21287 44.9769 8.70494 45.5538 9.14157C46.1377 9.57819 47.1594 10.0356 48.619 10.5C50.0786 10.9712 51.2811 11.4702 52.2194 12.0108C54.5061 13.3207 55.646 15.1365 55.646 17.4444C55.646 19.2879 54.951 20.7364 53.5539 21.7898C52.1568 22.8433 50.2455 23.37 47.8197 23.37C46.1029 23.37 44.553 23.0651 43.1629 22.4482C41.7727 21.8384 40.7302 20.9928 40.0282 19.9255C39.3262 18.8582 38.9717 17.6315 38.9717 16.2385H44.0803C44.0803 17.3681 44.3722 18.1998 44.9561 18.7335C45.5399 19.2671 46.4922 19.5374 47.8128 19.5374C48.6538 19.5374 49.321 19.3572 49.8076 18.9968C50.2941 18.6364 50.5374 18.1236 50.5374 17.4721L50.5513 17.479Z" fill="#0099D9"/>
<path d="M75.1561 5.92563H68.8102V23.0857H63.7155V5.92563H57.4878V2.00293H75.163V5.92563H75.1561Z" fill="#0099D9"/>
<path d="M87.8687 19.1491H80.8835L79.6602 23.0857H74.2109L81.9677 2.00293H86.7567L94.5691 23.0857H89.092L87.8548 19.1491H87.8687ZM82.1067 15.2195H86.6524L84.3726 7.90777L82.1067 15.2195Z" fill="#0099D9"/>
<path d="M101.846 23.0857H96.7651V2.00293H101.846V23.0857Z" fill="#0099D9"/>
<path d="M123.351 23.0857H118.284L110.792 9.96615V23.0857H105.697V2.00293H110.792L118.27 15.1225V2.00293H123.351V23.0857Z" fill="#0099D9"/>
<path d="M139.143 19.1491H132.157L130.934 23.0857H125.485L133.242 2.00293H138.031L145.843 23.0857H140.366L139.129 19.1491H139.143ZM133.374 15.2195H137.919L135.64 7.90777L133.374 15.2195Z" fill="#0099D9"/>
<path d="M147.685 23.0857V2.00293H155.282C158 2.00293 160.071 2.50193 161.489 3.493C162.907 4.48407 163.616 5.93256 163.616 7.8246C163.616 8.9127 163.366 9.84833 162.858 10.6176C162.358 11.3869 161.614 11.9621 160.634 12.3295C161.739 12.6206 162.587 13.1611 163.178 13.9512C163.769 14.7413 164.061 15.7116 164.061 16.8482C164.061 18.9135 163.407 20.4659 162.094 21.5055C160.78 22.5451 158.841 23.0718 156.262 23.0926H147.678L147.685 23.0857ZM152.787 10.7909H155.442C156.554 10.784 157.346 10.576 157.826 10.181C158.299 9.78595 158.535 9.19685 158.535 8.42063C158.535 7.52659 158.278 6.88898 157.763 6.49393C157.249 6.09889 156.422 5.90484 155.282 5.90484H152.787V10.784V10.7909ZM152.787 14.1245V19.1769H156.13C157.048 19.1769 157.756 18.9689 158.25 18.5462C158.743 18.1234 158.994 17.5343 158.994 16.772C158.994 15.0185 158.118 14.1314 156.366 14.1245H152.794H152.787Z" fill="#0099D9"/>
<path d="M172.262 19.1769H181.138V23.0857H167.167V2.00293H172.262V19.1769Z" fill="#0099D9"/>
<path d="M196.7 14.1383H188.686V19.1769H198.153V23.0857H183.584V2.00293H198.181V5.92563H188.686V10.3681H196.7V14.1314V14.1383Z" fill="#0099D9"/>
<path d="M0.646484 51.5985V30.9385H7.319C9.14699 30.9385 10.7943 31.3543 12.2539 32.179C13.7135 33.0038 14.8534 34.175 15.6735 35.6859C16.4937 37.1968 16.9107 38.8878 16.9177 40.7591V41.7086C16.9177 43.6006 16.5146 45.2986 15.7152 46.7956C14.9159 48.2926 13.783 49.4708 12.3303 50.3163C10.8707 51.1619 9.25125 51.5915 7.45801 51.5985H0.646484ZM5.64392 34.7849V47.7659H7.38155C8.81336 47.7659 9.91155 47.2599 10.6831 46.2412C11.4546 45.2224 11.8368 43.7115 11.8368 41.7086V40.8145C11.8368 38.8185 11.4546 37.3146 10.6831 36.3027C9.91155 35.2909 8.79251 34.7849 7.32595 34.7849H5.64392Z" fill="#0099D9"/>
<path d="M31.2427 42.8313H23.9099V47.7659H32.6676V51.5985H18.9194V30.9385H32.6954V34.7849H23.9099V39.1443H31.2427V42.8313Z" fill="#0099D9"/>
<path d="M43.6146 45.9846L47.7432 30.9453H53.3176L46.3462 51.6053H40.8831L33.9673 30.9453H39.4999L43.6146 45.9846Z" fill="#0099D9"/>
<path d="M67.0795 42.8313H59.8162V47.7659H68.5043V51.5985H54.8257V30.9385H68.5321V34.7849H59.8162V39.1443H67.0795V42.8313Z" fill="#0099D9"/>
<path d="M75.2186 47.7727H83.1214V51.6053H70.2212V30.9453H75.2186V47.7727Z" fill="#0099D9"/>
<path d="M101.7 41.6947C101.7 43.7115 101.325 45.4926 100.574 47.0451C99.8238 48.5975 98.7604 49.7896 97.3772 50.6282C95.9941 51.4668 94.4233 51.8826 92.6578 51.8826C90.8924 51.8826 89.3285 51.4806 87.9593 50.6698C86.597 49.8589 85.5266 48.7015 84.762 47.1975C83.9975 45.6936 83.5943 43.9679 83.5596 42.0204V40.8561C83.5596 38.8324 83.9349 37.0443 84.6786 35.4988C85.4223 33.9532 86.4927 32.7612 87.8828 31.9157C89.2729 31.0771 90.8507 30.6543 92.63 30.6543C94.4094 30.6543 95.9524 31.0701 97.3216 31.9018C98.6978 32.7335 99.7682 33.9186 100.533 35.4572C101.297 36.9958 101.68 38.7561 101.694 40.7452V41.6947H101.7ZM96.6196 40.8353C96.6196 38.7838 96.2721 37.2245 95.5909 36.1641C94.9028 35.0968 93.9159 34.5701 92.637 34.5701C90.1348 34.5701 88.8072 36.4413 88.6682 40.1907L88.6543 41.7085C88.6543 43.7323 88.9879 45.2916 89.6621 46.3797C90.3363 47.4678 91.3372 48.0084 92.6648 48.0084C93.9923 48.0084 94.8959 47.4748 95.584 46.4075C96.2651 45.3402 96.6127 43.8016 96.6196 41.7986V40.8492V40.8353Z" fill="#0099D9"/>
<path d="M108.679 44.5917V51.5985H103.681V30.9385H111.945C113.53 30.9385 114.934 31.2296 116.15 31.8117C117.367 32.3939 118.312 33.2186 118.979 34.2929C119.647 35.3671 119.98 36.5869 119.98 37.9453C119.98 39.9621 119.257 41.57 117.812 42.7759C116.366 43.9818 114.378 44.5848 111.855 44.5848H108.665L108.679 44.5917ZM108.679 40.7452H111.952C112.918 40.7452 113.655 40.5027 114.163 40.0244C114.67 39.5393 114.927 38.8601 114.927 37.9799C114.927 37.0166 114.663 36.2473 114.142 35.6651C113.62 35.0899 112.911 34.7919 112.008 34.7849H108.679V40.7452Z" fill="#0099D9"/>
<path d="M128.383 30.9453L133.005 45.3193L137.614 30.9453H144.189V51.6053H139.177V46.7816L139.664 36.9056L134.653 51.6053H131.351L126.326 36.8917L126.812 46.7816V51.6053H121.815V30.9453H128.376H128.383Z" fill="#0099D9"/>
<path d="M158.764 42.8313H151.41V47.7659H160.189V51.5985H146.42V30.9385H160.217V34.7849H151.41V39.1443H158.764V42.8313Z" fill="#0099D9"/>
<path d="M179.171 51.5985H174.201L166.862 38.7423V51.5985H161.864V30.9385H166.862L174.188 43.7947V30.9385H179.171V51.5985Z" fill="#0099D9"/>
<path d="M198.181 34.7849H191.96V51.5985H186.962V34.7849H180.86V30.9385H198.174V34.7849H198.181Z" fill="#0099D9"/>
</g>
<defs>
<clipPath id="clip0_252_3022">
<rect width="420" height="52" fill="white"/>
</clipPath>
</defs>
</svg>
