<?xml version="1.0" encoding="UTF-8"?>
<svg id="_レイヤー_1" data-name="レイヤー 1" xmlns="http://www.w3.org/2000/svg" viewBox="0 0 251.67 76.83">
  <defs>
    <style>
      .cls-1 {
        fill: #0c6;
      }

      .cls-2 {
        fill: #187ddd;
      }
    </style>
  </defs>
  <g>
    <path class="cls-2" d="M29.4,35.6c-4.07-3.66-7.39-3.45-12.01-.86-5.27,2.95-10.47,11.02-16.1,3.29-1.9-2.61-1.43-6.64-.36-9.54C4.39,19.21,18.51,2.12,28.49.26c7.91-1.47,10.14,3.66,16.18,3.93,4.28.19,7.39-5.45,12.23-2.05,4.35,3.04,2.82,7.99,1.77,12.32-1.93,7.94-6.05,16.02-11.97,21.71-1.34,1.29-5.16,4.57-6.74,5.17-5.09,1.93-7.56-3.03-10.57-5.74Z"/>
    <path class="cls-1" d="M11.64,69.01c-5.49-4.65-8.45-10.72-9.32-17.88,1.85,1.55,3.65,2.59,6.13,2.23,4.19-.61,8.53-5.88,12.61-7.46,7.42-2.88,7.79,2.43,11.69,6.6,2.55,2.72,5.07,3.98,8.74,2.34,6.03-2.7,15.31-17.01,17.79-23.1l3.23-10.88c.46,3.9.82,7.81.7,11.75-.14,4.58-.64,10.91-1.67,15.34-5.4,23.25-29.29,38.55-49.9,21.07Z"/>
  </g>
  <g>
    <path d="M85.91,13.95c.22.33.33.71.33,1.12v.18c-.04.47-.22.9-.53,1.27-.2.22-.43.33-.71.33h-.18c-.35-.06-.61-.26-.77-.59-.24-.57-.5-1.15-.8-1.74,0-.02-.01-.03-.04-.03s-.04.02-.04.06v11.94c0,.49-.17.91-.52,1.24-.35.33-.75.5-1.23.5h-.03c-.47,0-.88-.17-1.23-.5-.34-.34-.52-.75-.52-1.24v-9.78s-.01-.03-.03-.03-.03.01-.03.03c-.59,1.79-1.22,3.33-1.89,4.61-.16.28-.38.41-.68.41h-.12c-.35-.02-.6-.2-.74-.53-.08-.16-.16-.31-.24-.47-.22-.45-.33-.91-.33-1.36,0-.53.16-1.07.47-1.63,1.38-2.32,2.48-5.18,3.31-8.57.02-.06,0-.11-.03-.15-.04-.04-.09-.06-.15-.06h-1.83c-.45,0-.84-.16-1.17-.49s-.49-.72-.49-1.18.16-.86.49-1.18.71-.49,1.17-.49h2.07c.14,0,.21-.07.21-.21V1.74c0-.49.17-.91.52-1.24s.75-.5,1.23-.5h.03c.47,0,.88.17,1.23.5.34.33.52.75.52,1.24v3.67c0,.14.07.21.21.21h1.57c.47,0,.87.16,1.2.49s.49.72.49,1.18-.16.86-.49,1.18-.72.49-1.2.49h-1.57c-.14,0-.21.07-.21.21v.44c0,.14.04.27.12.38.63.85,1.51,2.17,2.63,3.96ZM102.96,13.09c.31.32.47.7.47,1.14s-.16.82-.47,1.14c-.32.32-.7.47-1.15.47h-2.9c-.06,0-.1.03-.13.07-.03.05-.03.09-.01.13,1.14,2.56,2.56,4.76,4.26,6.59.31.33.47.73.47,1.18s-.16.88-.47,1.21c-.08.08-.16.17-.24.27-.32.33-.7.51-1.15.53h-.06c-.41,0-.76-.17-1.03-.5-1.24-1.63-2.38-3.67-3.43-6.12-.02-.02-.04-.03-.06-.03s-.03,0-.03.03v7.27c0,.49-.17.91-.52,1.24-.35.33-.75.5-1.23.5h-.06c-.47,0-.88-.17-1.23-.5-.35-.34-.52-.75-.52-1.24v-7s-.02-.03-.04-.04c-.03,0-.04,0-.04.04-1.42,2.58-3,4.68-4.76,6.29-.32.26-.66.38-1.03.38h-.21c-.47-.08-.87-.3-1.18-.65-.04-.06-.08-.11-.12-.15-.26-.29-.38-.63-.38-1v-.18c.04-.43.24-.79.59-1.06,2.23-1.79,4.05-4.15,5.47-7.06.02-.04.01-.08-.01-.13-.03-.05-.07-.07-.13-.07h-3.13c-.45,0-.84-.16-1.15-.47-.32-.32-.47-.69-.47-1.14s.16-.82.47-1.14c.31-.31.7-.47,1.15-.47h4.79c.14,0,.21-.08.21-.24v-3.69c0-.16-.07-.24-.21-.24h-2.39c-.14,0-.24.07-.3.21-.28.73-.56,1.4-.86,2.01-.2.39-.52.64-.98.74-.12.02-.24.03-.35.03-.32,0-.61-.09-.89-.27-.37-.24-.62-.57-.74-1-.04-.16-.06-.31-.06-.47,0-.28.07-.54.21-.8.75-1.5,1.33-3.42,1.74-5.76.08-.45.31-.82.68-1.09.28-.2.58-.29.92-.29.1,0,.2,0,.3.03.47.08.84.31,1.09.68.2.28.3.58.3.92,0,.12-.01.23-.03.33-.08.47-.17.91-.27,1.3-.02.16.04.24.18.24h1.45c.14,0,.21-.08.21-.24V1.77c0-.49.17-.91.52-1.24.34-.33.75-.5,1.23-.5h.06c.47,0,.88.17,1.23.5.34.33.52.75.52,1.24v3.22c0,.16.07.24.21.24h3.84c.43,0,.81.16,1.12.47.31.32.47.69.47,1.14s-.16.82-.47,1.14c-.32.32-.69.47-1.12.47h-3.84c-.14,0-.21.08-.21.24v3.69c0,.16.07.24.21.24h4.58c.45,0,.84.16,1.15.47Z"/>
    <path d="M133.37,6.92c0,.47-.17.88-.52,1.23-.35.34-.75.52-1.23.52h-6.24c-.16,0-.23.07-.21.21.33,4.49.93,8.22,1.79,11.17.86,2.96,1.82,4.43,2.88,4.43.53,0,.89-1.23,1.06-3.69.02-.35.19-.6.5-.74.14-.04.27-.06.38-.06.18,0,.36.06.53.18.1.06.19.12.27.18.45.3.81.67,1.06,1.12.2.36.29.72.29,1.09,0,.12,0,.23-.03.33-.29,2.07-.77,3.48-1.43,4.24s-1.65,1.14-2.97,1.14c-1.24,0-2.35-.5-3.32-1.51-.98-1-1.78-2.42-2.42-4.26-.64-1.83-1.15-3.87-1.54-6.1s-.68-4.74-.87-7.52c-.02-.14-.1-.21-.24-.21h-13.09c-.47,0-.88-.17-1.23-.52s-.52-.75-.52-1.23v-.03c0-.49.17-.91.52-1.24s.75-.5,1.23-.5h12.92c.14,0,.21-.08.21-.24-.06-1.36-.09-2.37-.09-3.04,0-.47.17-.88.5-1.21.35-.33.77-.5,1.24-.5h.38c.47,0,.88.17,1.21.5s.5.75.5,1.24v.33c0,.97.02,1.86.06,2.69,0,.16.08.24.24.24h4.31c.06,0,.1-.02.12-.06.02-.04,0-.08-.03-.12-.49-.59-1.22-1.27-2.19-2.04-.32-.28-.47-.61-.47-1s.16-.71.47-.95c.35-.3.76-.45,1.21-.47h.06c.43,0,.82.14,1.15.41.55.41,1.04.82,1.48,1.21.34.3.5.66.5,1.09,0,.51-.19.94-.56,1.27l-.59.5s-.02.05-.01.09c0,.04.03.06.07.06h.89c.47,0,.88.17,1.23.5.34.33.52.75.52,1.24v.03ZM115.82,15.58c-.14,0-.21.08-.21.24v6.21c0,.14.07.2.21.18,1.3-.24,2.58-.47,3.84-.71.1-.02.2-.03.3-.03.3,0,.57.1.83.3.35.26.55.6.59,1.03v.15c0,.39-.12.76-.35,1.09-.28.38-.64.61-1.09.71-3.01.65-6.65,1.42-10.91,2.3-.14.04-.28.06-.41.06-.33,0-.65-.1-.95-.3-.41-.26-.69-.61-.83-1.06l-.06-.3c-.04-.14-.06-.28-.06-.41,0-.29.08-.57.24-.83.26-.39.61-.63,1.06-.71,1.52-.22,2.78-.41,3.78-.59.16-.02.24-.11.24-.27v-6.83c0-.16-.08-.24-.24-.24h-2.6c-.47,0-.88-.17-1.23-.5-.34-.33-.52-.74-.52-1.23s.17-.9.52-1.24.75-.52,1.23-.52h9.52c.47,0,.88.17,1.23.52.34.34.52.76.52,1.24s-.17.89-.52,1.23c-.35.34-.75.5-1.23.5h-2.9Z"/>
    <path d="M144.75,12.35c-.47,0-.88-.17-1.23-.5-.34-.33-.52-.75-.52-1.24v-.24s-.02-.07-.06-.09c-.04-.02-.08-.02-.12,0-1.06.75-2.19,1.45-3.37,2.1-.28.14-.55.21-.83.21-.16,0-.33-.03-.5-.09-.47-.14-.85-.4-1.12-.8-.04-.06-.08-.13-.12-.21-.2-.26-.29-.53-.29-.83,0-.1.02-.21.06-.33.08-.43.32-.75.71-.95,1.89-.98,3.68-2.19,5.38-3.61,1.69-1.42,3.11-2.87,4.26-4.34.75-.95,1.67-1.42,2.75-1.42h.27c1.12,0,2.07.45,2.84,1.36,1.34,1.64,2.89,3.1,4.64,4.4s3.58,2.36,5.47,3.19c.37.16.61.44.71.86.04.12.06.24.06.35,0,.28-.09.53-.27.77-.1.16-.2.32-.3.47-.28.41-.65.69-1.12.83-.18.06-.35.09-.53.09-.28,0-.55-.08-.83-.24-1.16-.61-2.28-1.28-3.34-2.01-.04-.04-.08-.04-.12-.01-.04.03-.06.06-.06.1v.41c0,.49-.17.91-.52,1.24-.35.34-.75.5-1.23.5h-10.67ZM139.32,18.21c-.45,0-.84-.16-1.17-.49s-.49-.72-.49-1.18.16-.86.49-1.18.71-.49,1.17-.49h21.72c.45,0,.84.16,1.17.49s.49.72.49,1.18-.16.86-.49,1.18-.71.49-1.17.49h-11.67c-.16,0-.27.07-.33.21-.61,1.22-1.47,2.88-2.57,4.97-.04.04-.04.08-.01.12.03.04.07.06.13.06,1.97-.06,4.86-.17,8.66-.33.04,0,.07-.02.09-.06.02-.04,0-.08-.03-.12-.51-.59-1.03-1.15-1.57-1.68-.24-.26-.35-.55-.35-.89v-.21c.06-.43.28-.75.65-.95l.09-.03c.37-.2.76-.3,1.15-.3.12,0,.23.01.33.03.53.06.99.27,1.36.62,1.81,1.73,3.36,3.46,4.64,5.17.22.28.33.58.33.92,0,.12-.01.24-.03.35-.12.45-.38.81-.8,1.06l-.35.24c-.28.16-.57.24-.89.24-.14,0-.29-.02-.44-.06-.45-.12-.82-.37-1.09-.77-.04-.06-.09-.13-.15-.21-.1-.12-.22-.18-.35-.18-2.6.14-8.52.42-17.76.86h-.12c-.45,0-.86-.15-1.21-.44-.38-.32-.59-.72-.65-1.21l-.03-.06v-.24c0-.37.12-.71.35-1,.32-.35.7-.53,1.15-.53l2.6-.09c.16-.02.27-.09.33-.21.83-1.71,1.54-3.41,2.13-5.08.02-.04.01-.08-.02-.13-.03-.05-.07-.07-.13-.07h-5.14ZM144.67,8.93s-.02.05-.01.09c0,.04.03.06.07.06h10.91s.06-.02.07-.06c0-.04,0-.07-.01-.09-2.34-1.77-4.19-3.54-5.53-5.29-.08-.1-.16-.09-.24.03-1.32,1.79-3.07,3.55-5.26,5.26Z"/>
    <path d="M178.3,15.9c.36.33.56.75.62,1.24v.21c0,.41-.13.8-.38,1.15l-.09.12c-.26.35-.61.53-1.06.53h-.03c-.41,0-.76-.16-1.03-.47-.47-.55-.96-1.1-1.45-1.66-.04-.04-.07-.05-.1-.03-.03.02-.04.05-.04.09v9.43c0,.49-.17.91-.52,1.24-.35.33-.75.5-1.23.5h-.09c-.49,0-.91-.17-1.24-.5-.34-.33-.5-.75-.5-1.24v-8.48s-.02-.07-.06-.09c-.04-.02-.08,0-.12.03-.71.65-1.43,1.24-2.16,1.77-.24.18-.48.27-.74.27-.14,0-.28-.03-.41-.09-.43-.14-.75-.41-.95-.83-.04-.1-.09-.2-.15-.29-.14-.28-.21-.56-.21-.86,0-.14.02-.3.06-.47.12-.45.37-.81.77-1.06,1.34-.91,2.61-2,3.81-3.28,1.2-1.28,2.22-2.65,3.04-4.11.04-.04.04-.08.01-.12-.03-.04-.06-.06-.1-.06h-5.5c-.45,0-.84-.16-1.15-.47-.32-.31-.47-.7-.47-1.15s.16-.84.47-1.15.7-.47,1.15-.47h2.45c.16,0,.24-.07.24-.21V1.77c0-.49.17-.91.5-1.24.33-.33.75-.5,1.24-.5h.09c.47,0,.88.17,1.23.5.34.33.52.75.52,1.24v3.61c0,.14.07.21.21.21h1.21c.12-.04.23-.06.33-.06.26,0,.5.08.74.24l.5.33c.3.2.5.45.62.77.04.16.06.31.06.44,0,.18-.04.36-.12.56-.81,1.81-1.8,3.54-2.99,5.17-.08.12-.06.23.06.33.81.67,1.79,1.52,2.96,2.54ZM188.29,23.64c0,.16.08.24.24.24h4.46c.49,0,.91.17,1.24.5s.5.75.5,1.24-.17.91-.5,1.24-.75.5-1.24.5h-13.62c-.49,0-.91-.17-1.24-.5-.34-.33-.5-.75-.5-1.24s.17-.91.5-1.24c.33-.33.75-.5,1.24-.5h5.02c.14,0,.21-.08.21-.24v-10.64c0-.14-.07-.21-.21-.21h-3.78c-.49,0-.91-.17-1.24-.52s-.5-.75-.5-1.23.17-.88.5-1.23.75-.52,1.24-.52h3.78c.14,0,.21-.07.21-.21V2.01c0-.49.17-.91.52-1.24s.75-.5,1.23-.5h.21c.49,0,.91.17,1.24.5s.5.75.5,1.24v7.09c0,.14.08.21.24.21h3.75c.47,0,.88.17,1.23.52.34.34.52.75.52,1.23s-.17.88-.52,1.23c-.35.34-.75.52-1.23.52h-3.75c-.16,0-.24.07-.24.21v10.64Z"/>
  </g>
  <g>
    <path d="M111.37,47.29h-12.65v-8.52c0-1.78-1.18-2.88-3.07-2.88s-3.02,1.09-3.02,2.84v8.56h-16.7c-1.48,0-2.47,1.14-2.47,2.84s.99,2.88,2.56,2.88h16.52c-.25,5.61-1.24,9.18-3.26,11.82-2.18,2.9-6.11,5.41-9.78,6.25-1.35.32-2.19,1.33-2.19,2.63,0,.37.06.7.18,1.07.38,1.28,1.41,2.05,2.75,2.05.28,0,.55-.05.9-.13,5.14-1.35,10.06-4.42,12.85-8.03,2.98-3.82,4.21-7.99,4.58-15.66h12.92c1.45,0,2.43-1.16,2.43-2.88s-.99-2.84-2.56-2.84Z"/>
    <path d="M151.67,44.12l-11.55.04v-.08c.08-1.86.15-3.59.19-5.53,0-1.67-1.24-2.84-3.02-2.84s-2.93,1.1-2.93,2.79c0,2.07-.04,3.78-.13,5.67l-10.27.04c-1.69,0-2.75,1.09-2.75,2.84s1.01,2.75,2.7,2.75h9.88c-.4,3.73-1.16,6.87-2.3,9.6-1.98,4.73-5.37,8.53-10.05,11.29-.95.54-1.52,1.5-1.52,2.57,0,.57.18,1.13.48,1.55.59.92,1.46,1.42,2.45,1.42.57,0,1.15-.16,1.71-.46,5.52-3.27,9.74-8.02,12.22-13.75,1.55-3.64,2.52-7.66,2.94-12.26h10.71c1.02,0,1.19.13,1.2.15,0,0,.1.12.1.69v.16c-.15,6.08-.56,11.11-1.18,14.55-.81,4.42-1.55,4.42-3.15,4.42-1.44,0-3.22-.25-4.63-.67-.26-.05-.56-.11-.84-.11-1.31,0-2.32.86-2.58,2.14-.08.3-.08.61-.08.84,0,1.3.73,2.37,1.93,2.79,1.72.56,4.14.88,6.65.88,5.09,0,7.46-2.5,8.48-8.94.5-3.27,1.14-8.82,1.3-16.69.03-1.76-.49-3.23-1.48-4.24-1.05-1.06-2.55-1.6-4.49-1.6Z"/>
    <path d="M196.48,40.12h-25.23c-1.72,0-2.79,1.16-2.79,3.02s1.03,2.88,2.75,2.88h24.13c1.25,0,1.25.02,1.25,1.11v19.08c0,1.09,0,1.16-1.25,1.16h-24.87c-1.75,0-2.79,1.1-2.79,2.93s1.1,2.98,2.75,2.98h26.06c4.08,0,6.24-2.27,6.24-6.56v-20c0-4.26-2.22-6.61-6.24-6.61Z"/>
    <path d="M248.83,53.78h-34.89c-1.7,0-2.84,1.23-2.84,3.07s1.1,2.98,2.79,2.98h34.98c1.7,0,2.79-1.17,2.79-2.98s-1.14-3.07-2.84-3.07Z"/>
  </g>
</svg>