<svg width="102" height="150" viewBox="0 0 102 150" fill="none" xmlns="http://www.w3.org/2000/svg">
<g clip-path="url(#clip0_213_3602)">
<path d="M41.8258 16.8295C51.6594 18.3178 56.6156 31.6586 54.9797 40.4895C57.931 43.2085 57.5971 47.787 54.8941 50.6365C55.7716 51.807 55.5586 53.2501 54.869 54.4357C57.785 61.1329 59.9913 69.208 53.0133 74.8032C59.5735 78.5439 64.7244 79.7194 71.4439 82.8866C72.9942 83.6173 74.0932 85.6257 74.422 87.3012C75.5629 93.0954 76.229 98.6605 76.4018 104.625C76.6871 114.473 76.5881 124.065 75.6485 133.807C75.3348 137.054 74.412 140.245 72.4355 142.711C70.6285 144.967 67.8988 145.439 64.9089 145.755L65.5616 149.133C65.6035 149.347 65.2797 149.842 65.0968 149.944C64.914 150.046 64.4224 149.572 64.3653 149.343L63.4979 145.894C58.8084 145.678 54.2734 145.432 49.5755 144.867L39.7369 143.685L39.6547 149.281C39.6514 149.485 39.247 149.937 39.0859 149.995C38.9249 150.054 38.4719 149.487 38.4702 149.29L38.4031 143.469L31.6147 142.337L31.3362 140.571L28.8044 140.124L28.4068 137.961C26.4354 137.528 24.7945 136.974 23.0579 135.996C19.9389 139.31 18.1655 141.265 13.3116 141.934L11.6791 149.256C11.6238 149.504 11.102 149.914 10.8771 149.932C10.6523 149.95 10.3923 149.266 10.4611 148.944L11.9811 141.792C4.86392 140.165 2.22642 132.829 1.39759 126.279C-1.26406e-05 115.239 -0.976491 97.2976 1.63248 86.6725C2.18448 84.4267 3.73476 83.0103 5.74309 82.2428L14.2109 79.0088C16.9139 77.977 19.4188 76.7613 22.0395 75.3433C15.3955 69.9705 18.7628 62.6897 19.345 56.23C16.1052 54.3889 13.8955 50.0412 15.9256 46.5229C10.2647 34.3041 14.6908 20.2525 28.0611 15.8663C31.3026 14.8028 38.3494 14.2242 40.1715 16.5469C40.2688 16.6707 39.6262 17.1506 39.351 17.0436C36.0307 15.7577 31.1483 15.9617 27.5511 17.3747C15.9776 21.9214 12.1657 33.7673 16.6135 44.9092C16.7209 45.1801 17.0665 45.8289 17.3283 45.8105L18.6202 45.7185C18.0548 44.4109 18.1672 43.9159 18.9624 42.8156C21.3718 39.4829 24.0126 34.7589 25.2307 31.0984C25.3179 30.8376 25.9069 30.4547 26.0092 30.5516C27.3766 31.8409 22.9053 38.814 22.2895 40.5046C31.4318 37.3174 32.306 28.8443 33.3546 27.9698C35.0458 26.5551 33.0677 35.483 32.8932 36.0515C39.4299 32.5817 40.3812 24.7708 41.1362 23.9916C41.3208 23.801 42.007 24.3829 42.1311 24.6588C44.5824 30.1202 47.8558 35.3642 52.1996 39.4427C52.0503 39.7839 51.9261 40.0347 51.802 40.1835C51.6359 40.3825 50.9413 39.911 50.7097 39.6969C46.7568 36.0448 44.22 31.5165 41.5422 26.8293C39.6145 32.279 36.2891 36.5933 30.9 38.3374L31.4201 35.1134C28.8413 38.6217 25.5226 41.0397 21.3416 42.3273C20.6621 42.5363 19.6101 44.0045 19.7175 44.7119L20.2309 48.0964C20.2644 48.3121 20.0732 48.8773 19.9305 48.9977C19.1957 49.6181 19.3265 47.2419 17.9725 47.1065C17.5397 47.063 16.6521 47.6984 16.5699 48.1867C16.028 51.3873 17.8383 54.5678 21.0446 55.3788L20.4708 53.1582C20.4087 52.919 20.7292 52.1849 20.9339 52.2702C21.1386 52.3555 21.5681 52.7167 21.6553 52.9608C24.3348 60.5827 26.6065 64.1061 34.4351 67.0876L36.4703 64.9639C37.0021 64.4087 38.3611 63.8435 39.1682 64.091L43.8022 65.5107C50.0218 60.8369 51.2936 55.7635 51.6443 48.1599C51.6526 47.9743 52 47.4844 52.1677 47.4125C52.3892 47.3172 52.8103 47.8857 52.8204 48.1248L52.916 50.2887C55.9344 48.9308 56.525 44.6115 54.7297 42.1099C54.5301 41.8323 53.4059 41.4979 53.1895 41.7621C52.1241 43.0614 53.2969 41.7286 52.1996 43.7219C52.1124 43.8791 51.4949 43.2821 51.4916 43.1015L51.4446 40.5046L53.6576 40.3307C54.7163 34.7773 53.26 29.4279 50.5034 24.5735C46.4917 17.5135 40.0423 18.475 40.8795 17.2259C41.0188 17.0185 41.5372 16.7827 41.8325 16.8262L41.8258 16.8295ZM53.0284 51.8589C52.812 52.1398 52.7348 52.8388 52.9949 53.0495C53.2029 53.2184 54.0888 53.2936 54.1073 53.0261L54.1777 52.0495C54.1962 51.7836 53.1912 51.6498 53.0284 51.8605V51.8589ZM52.255 73.4888C60.6842 68.3668 53.6073 53.118 52.557 54.4625C52.4714 54.5712 52.208 54.9374 52.1795 55.0728C51.4983 58.2952 49.8893 61.5543 47.4716 64.0007C47.2652 65.7214 47.277 68.0174 47.48 69.5942C49.287 70.82 50.7064 72.0005 52.2567 73.4905L52.255 73.4888ZM20.6285 56.9775C20.4188 57.2099 20.5043 58.0711 20.7225 58.2952C20.9406 58.5192 21.6352 58.2818 21.7979 58.0142C21.9607 57.7467 21.9238 57.2316 21.7577 56.9658C21.6251 56.7534 20.7963 56.7919 20.6302 56.9775H20.6285ZM23.0395 74.1627C24.9354 72.1477 26.4505 70.7899 28.645 69.5625L28.5125 65.586C25.9471 63.974 24.2509 61.6747 22.8247 59.2567L20.3114 59.8336C18.8869 63.7449 18.1856 71.9169 23.0395 74.1627ZM38.5004 75.3667L44.5237 74.743C44.6378 74.4654 44.5522 73.5574 44.2485 73.3667C44.0069 73.2162 43.2603 73.0758 42.908 73.1243L36.8377 73.957C36.5692 73.9938 35.8965 73.6627 35.8579 73.4035C35.8293 73.2112 36.2656 72.7698 36.4937 72.7346L43.5069 71.6527C43.6529 70.8768 42.611 69.9136 41.9348 70.0758L34.7925 71.7798C34.519 71.845 33.8881 71.6527 33.7958 71.3986C33.7036 71.1444 34.3126 70.5842 34.6381 70.5591C39.1178 70.213 37.638 65.6646 43.0825 68.6979C43.8979 69.1528 44.6042 69.2983 45.4079 69.004C42.8073 65.9957 41.6429 66.0826 38.0323 65.2683C35.7488 67.6762 33.2774 69.9805 31.3412 72.6577C30.6617 78.8449 32.3429 85.5053 29.5443 91.3362L35.6834 94.5418C36.2941 93.2576 36.6783 91.6155 37.4803 90.9065C39.4903 89.1289 40.6278 87.2945 40.5154 84.5337L40.3678 80.9435C40.3158 79.6693 41.3174 78.6609 42.5288 78.4971L43.3425 78.3867C43.5304 78.3616 43.8878 79.0104 43.7318 79.1174L43.0154 79.6107C42.5456 79.9335 41.9365 80.2044 41.7654 80.5405C41.6228 80.8197 41.7536 81.5187 41.8375 81.9318C42.9281 81.2328 43.7066 80.788 44.465 80.0255C45.2502 79.2378 45.0807 77.0523 44.3576 76.1476C42.111 75.8015 38.6078 77.462 37.8427 76.1008C37.7404 75.9185 38.2856 75.3884 38.5021 75.3667H38.5004ZM45.9163 67.5241L45.9683 65.7298C45.6042 65.8686 44.7351 66.3585 44.9633 66.5843L45.9146 67.5241H45.9163ZM29.7574 84.8615L29.895 72.2464L33.3244 68.1712L29.9134 66.5207V70.2263C29.9134 72.0189 28.8245 73.7798 28.083 75.1443C28.2474 78.5255 28.9772 81.7629 29.7574 84.8631V84.8615ZM41.6849 87.0336C43.5858 86.7611 44.6613 86.5521 46.0471 86.0404C46.5958 82.2512 47.7249 78.9251 47.7769 75.1192C47.7954 73.7329 45.8173 72.1193 46.2099 70.5073L44.9532 70.7196C44.1411 70.8568 45.975 72.7581 46.0538 75.5322C46.1897 80.3198 47.0823 80.3565 41.8342 83.5103L41.6849 87.0353V87.0336ZM22.9002 95.7525L24.578 92.99C27.64 92.8429 25.0109 90.9466 28.1803 90.4416C28.7507 90.3513 29.2423 88.9049 29.0963 88.2644C28.0125 83.4836 27.0444 78.8817 26.5394 74.0758C27.6199 73.3233 28.3078 72.6477 28.2809 71.3902C26.073 72.6577 24.0109 74.549 22.7794 76.8566L19.3165 83.3448L23.412 84.9986L25.0596 83.7913C25.2827 83.6274 25.932 83.609 26.1401 83.7729C26.3481 83.9367 25.9974 84.6524 25.7424 84.8631L19.5027 89.9918L22.9019 95.7525H22.9002ZM66.8266 144.225C73.0211 143.666 74.2878 136.399 74.6183 131.476C75.224 122.483 75.3515 113.697 75.0982 104.632C74.9304 98.602 74.3096 92.8512 73.0077 87.0755C72.5865 85.2109 71.2342 84.0103 69.5782 83.3531L55.0217 77.5773L58.1826 84.0337L53.5083 85.9451L57.9276 89.8296C52.9378 98.4966 46.8793 108.016 41.4718 116.001C41.1211 116.518 40.252 116.085 40.3409 115.839C40.4013 115.67 40.5272 115.152 40.6262 115.001C46.0287 106.761 51.3859 98.617 56.3169 89.9851L49.8356 84.6591C49.6175 84.4802 49.6242 83.5739 49.8306 83.609C51.6392 83.9183 51.7936 85.1658 52.6342 84.8431L56.483 83.3615C53.7801 78.278 52.661 74.7095 47.9179 71.4454C47.3994 73.3483 49.7299 73.1042 49.3239 75.4971C48.3675 81.1291 47.5068 86.42 45.9146 91.9148L38.648 117.008C38.9886 118.416 39.6564 120.188 39.6782 121.603L39.752 126.553L59.1172 126.973C60.9577 117.61 63.2848 112.988 62.9241 103.303C62.914 103.052 63.3284 102.329 63.5281 102.438C63.7278 102.547 64.1103 103.035 64.1204 103.261C64.57 113.068 62.2865 117.735 60.3722 127.188C62.3704 127.499 68.2729 133.011 66.5599 133.712C65.6471 134.084 63.1137 128.855 59.7027 128.494C50.9027 128.215 42.4181 128.233 33.5828 127.34L32.7204 141.282C43.0489 142.756 56.8723 145.123 66.8233 144.226L66.8266 144.225ZM9.32518 119.926C7.36384 119.438 7.47457 117.528 6.87392 116.443C6.1122 115.068 5.67933 113.914 6.13234 112.406C6.31018 111.817 5.99476 110.508 6.39072 110.118C6.7397 109.776 7.82523 109.488 8.34199 109.555L10.5919 109.848C10.2295 108.863 10.0248 107.7 10.4309 107.154C10.9241 106.488 12.1875 106.471 12.8335 106.794L16.3132 108.533L22.2929 97.2542L17.835 89.6975L22.2593 86.0052L17.6471 83.9033L20.7795 77.6375C15.8636 79.7278 11.107 81.6692 6.00482 83.5321C4.48809 84.0856 3.35055 85.1992 2.92942 86.8631C2.26837 89.4767 1.73315 92.1372 1.59054 94.9616C1.04861 105.667 1.32377 116.24 2.78513 126.824C3.31364 130.648 4.42937 134.094 6.7095 137.038C9.68759 140.884 14.8049 141.589 18.6118 138.529C23.5428 134.566 25.4924 128.921 28.239 123.325L37.6464 100.522L25.219 94.3345L15.5465 112.719L11.461 119.051C10.1641 121.061 9.20438 123.125 8.88896 125.583C8.72118 126.899 6.08368 126.884 9.32686 119.921L9.32518 119.926ZM39.1296 100.164L35.9032 108.343C36.425 110.403 37.1078 112.533 38.0071 114.525C40.9919 105.343 43.4012 96.7308 45.6226 87.7059L41.2285 88.44C39.3275 91.659 37.6464 91.4416 36.9669 95.0937L38.4282 96.01C39.0524 96.4013 37.5659 98.6488 37.9232 98.9966L39.1279 100.164H39.1296ZM36.4115 98.5217L37.1363 96.7007L27.8732 92.0135C27.4638 92.3128 27.041 93.3713 27.2726 93.8746L36.4115 98.52V98.5217ZM14.7294 109.115L11.4879 107.782C10.8738 109.483 15.08 111.632 15.476 110.145C15.5448 109.889 15.0398 109.244 14.7277 109.115H14.7294ZM28.2222 126.651C28.9588 127.534 32.509 127.305 32.759 126.148L38.3813 126.357C38.3527 124.536 38.7688 122.203 38.2001 120.384L35.1079 110.495L33.3848 114.319L36.7102 119.033C36.8696 119.26 37.081 119.998 36.8981 120.091L36.227 120.433L32.8412 115.744L28.2205 126.653L28.2222 126.651ZM13.2093 113.607C13.6958 113.148 14.0817 112.49 14.2562 111.876L8.20441 110.844C7.9259 110.797 7.19941 111.23 7.3286 111.391C7.45779 111.551 7.83362 112.078 8.07187 112.147L13.2093 113.607ZM11.6187 116.212L12.5516 114.861C10.7043 114.299 9.38055 113.881 7.39739 113.687C6.99976 113.648 7.44102 115.095 7.84537 115.204L11.6187 116.214V116.212ZM10.6137 117.725C10.2815 117.056 9.1121 116.888 8.55507 117.321C8.50977 117.568 9.11378 118.199 9.51142 118.515C9.80671 118.75 10.7949 118.09 10.6137 117.725ZM28.7708 136.482L29.3111 129.044C28.9521 128.559 27.9169 127.949 27.5377 127.952L23.8851 134.829C25.3716 135.926 27.1283 136.469 28.7708 136.482ZM31.5157 139.124L32.16 129.275C32.1801 128.966 31.6768 128.377 31.3664 128.362C31.056 128.347 30.5896 128.941 30.5678 129.279L29.9688 138.909L31.5174 139.124H31.5157Z" fill="#187DDD"/>
<path d="M89.9068 33.8356C87.8129 36.4626 84.803 37.7853 81.4138 37.4459C78.3887 37.1432 75.612 35.18 74.1003 32.2068C70.4662 33.0446 66.7868 31.6199 64.7785 28.8641C62.5436 25.7956 62.4094 21.7924 64.7348 18.5232C62.7668 15.3795 62.8171 11.6939 64.7952 8.7174C66.8354 5.6489 70.332 4.94658 73.758 4.97835C75.8435 2.82957 78.3602 0.0202668 81.7678 0.00020038C85.3415 -0.0198661 88.6065 1.46672 90.6182 4.67067C94.4419 3.81617 98.0341 5.35961 100.195 8.48831C102.744 12.1805 102.655 16.9697 99.5458 20.4329C101.411 23.784 101.344 27.5063 99.18 30.4611C97.0157 33.4158 93.5678 34.8807 89.9085 33.8372L89.9068 33.8356ZM89.4253 32.3088C92.9067 33.7319 96.3093 32.2821 98.2404 29.5698C100.172 26.8558 100.012 23.2656 97.8931 20.3576C100.898 17.5199 101.537 13.4932 99.6179 10.005C97.6801 6.48333 93.947 4.91146 89.9706 6.09538C88.2575 2.89646 85.1956 1.10553 81.741 1.3597C78.6589 1.58545 76.0667 3.71249 74.5315 6.70908C71.0316 5.54356 67.7465 6.83784 65.7952 9.57858C63.8641 12.2909 64.2298 15.7189 66.3388 18.5784C63.5906 21.5532 63.9614 25.217 65.7633 28.125C67.7985 31.4092 71.6541 30.9092 74.716 31.1082C76.4912 33.3356 78.4928 36.2519 81.7443 36.267C84.9959 36.282 87.6317 35.2285 89.4236 32.3088H89.4253Z" fill="#187DDD"/>
<path d="M69.8656 35.2514C71.5652 34.544 73.4293 35.248 74.2363 36.8366C75.0433 38.4252 74.3437 40.36 72.6793 41.1225C71.0703 41.8599 69.1391 41.3215 68.3237 39.7329C67.4915 38.1108 68.0687 36.0005 69.8673 35.2514H69.8656ZM70.5049 36.3216C69.2247 36.8768 68.9831 38.2547 69.4244 39.0841C69.9243 40.0222 71.0954 40.4118 71.9528 40.1008C73.0417 39.7061 73.4393 38.4269 73.0534 37.3366C72.7783 36.5574 71.5468 35.8701 70.5049 36.3216Z" fill="#187DDD"/>
<path d="M64.3971 40.5726C65.887 40.0525 67.1588 40.9003 67.5313 42.1645C67.85 43.2464 67.2142 44.6695 66.1857 45.0307C64.8082 45.5156 63.5482 44.9872 63.0113 43.6294C62.6271 42.6578 62.9576 41.0742 64.3971 40.5726ZM64.4609 41.9622C64.0297 42.4471 64.1673 43.5909 64.5968 43.7715C65.0045 43.9421 65.6504 43.9855 65.9323 43.7247C66.3316 43.3551 66.4189 42.422 66.1538 42.0625C65.9256 41.7548 64.7226 41.6662 64.4609 41.9622Z" fill="#187DDD"/>
<path d="M42.3389 58.6624C43.2097 60.0186 38.4246 57.4651 35.5069 59.9952C35.3257 60.1523 34.4415 60.1122 34.4197 59.8915C34.2133 57.8414 40.896 56.4133 42.3389 58.6624Z" fill="#187DDD"/>
<path d="M44.6563 38.3037C41.5893 36.5445 40.4317 38.3806 39.3495 37.7034C38.1767 36.9693 42.138 35.2034 45.2872 37.3121C45.4885 37.4475 45.7972 38.1749 45.6144 38.2502C45.4315 38.3254 44.8644 38.4224 44.6563 38.3037Z" fill="#187DDD"/>
<path d="M43.7116 45.0024C42.7921 45.5158 41.762 44.8552 41.6529 43.8837C41.5858 43.285 41.97 42.2182 42.9851 42.2416C43.3693 42.25 44.0102 42.78 44.1495 43.1279C44.3122 43.5342 44.1394 44.7633 43.7116 45.0024Z" fill="#187DDD"/>
<path d="M29.3375 47.4437C28.3258 47.7095 27.6899 46.9236 27.5909 46.2179C27.5137 45.6761 27.8929 44.7096 28.6362 44.5625C29.1731 44.4554 29.9415 45.0507 30.1042 45.4721C30.3106 46.0089 30.0959 47.2447 29.3392 47.4437H29.3375Z" fill="#187DDD"/>
<path d="M38.423 53.3632L36.829 53.6843C36.4717 53.7562 35.819 53.0154 35.8777 52.6475L38.5941 52.1827C38.9229 52.1258 38.7182 53.303 38.423 53.3632Z" fill="#187DDD"/>
<path d="M65.3097 98.2773C65.2007 98.585 64.7141 98.9797 64.5581 98.8977C64.3534 98.7907 64.0212 98.187 64.142 97.8442C64.8701 95.7724 68.3331 86.9766 70.0092 86.0251C70.2055 85.9147 70.5948 86.7993 70.4471 87.0669C68.62 90.3778 66.6368 94.5032 65.3097 98.2773Z" fill="#187DDD"/>
<path d="M60.5129 105.633H51.2011C50.9025 105.633 50.3874 105.212 50.2851 105.06C50.1492 104.856 50.7985 104.317 51.0854 104.317L60.2713 104.326C60.4609 104.326 60.9508 104.682 61.1018 104.784C61.2528 104.886 60.6958 105.632 60.5129 105.632V105.633Z" fill="#187DDD"/>
<path d="M5.89111 85.8639C7.47662 84.8706 14.2667 98.6094 12.916 98.8435C12.6711 98.8853 12.1073 98.591 12.01 98.3469C10.3759 94.2617 8.37928 90.3604 5.83406 86.7702C5.70487 86.5863 5.70151 85.9826 5.89111 85.8639Z" fill="#187DDD"/>
<path d="M80.4486 21.4774C80.8278 17.0009 86.0894 16.6565 84.6834 13.7418C84.3646 13.0813 83.1465 12.6733 82.3848 12.7552C79.6315 13.0529 80.8395 17.1966 77.3967 15.9909C76.2575 15.5913 75.9119 14.2117 76.4253 12.9107C77.6366 9.84726 80.9302 8.67672 84.1415 9.11985C86.6196 9.46266 88.6145 10.9359 89.2319 13.2335C89.8762 15.6281 88.7957 17.9391 86.5558 19.4123C82.9116 21.8085 85.4552 23.7399 82.566 23.8954C81.4033 23.959 80.306 23.1731 80.4503 21.4774H80.4486ZM82.3361 22.7065C83.3026 23.4623 82.5241 20.444 85.6884 18.5544C87.643 17.3872 88.6581 15.3839 88.0105 13.3656C87.4098 11.491 85.6683 10.384 83.5291 10.2386C80.9302 10.0613 78.2339 11.0195 77.4823 13.685C77.3799 14.0462 77.6534 14.8722 77.9672 14.9893C79.5644 15.5863 79.0493 11.9358 82.0509 11.6215C83.5408 11.466 84.9988 11.8322 85.732 13.1432C86.7085 14.8873 85.7974 16.6632 84.2455 17.7618C82.7757 18.8019 80.5275 21.2935 82.3361 22.7082V22.7065Z" fill="#187DDD"/>
<path d="M82.2452 24.5715C83.47 24.4695 84.579 25.3591 84.7384 26.3122C84.9833 27.7771 84.1545 28.9025 82.9884 29.1065C81.5925 29.3523 80.3895 28.5112 80.21 27.2102C80.0405 25.9862 80.7955 24.6935 82.2468 24.5715H82.2452ZM81.8995 25.9009C81.4549 26.0096 81.319 27.3607 81.6898 27.64C82.0019 27.8741 82.7418 27.9577 83.0925 27.7821C83.4431 27.6065 83.6092 26.64 83.4398 26.2872C83.2703 25.9343 82.4868 25.7587 81.8995 25.9009Z" fill="#187DDD"/>
</g>
<defs>
<clipPath id="clip0_213_3602">
<rect width="102" height="150" fill="white"/>
</clipPath>
</defs>
</svg>
