<svg width="141" height="150" viewBox="0 0 141 150" fill="none" xmlns="http://www.w3.org/2000/svg">
<g clip-path="url(#clip0_213_3562)">
<path d="M69.7384 149.076C69.7384 149.38 69.4315 149.85 69.2856 149.912C69.0927 149.994 68.5258 149.495 68.5258 149.282L68.5325 103.256C68.5325 101.68 69.0323 100.176 69.7753 98.9205L72.0899 95.0029C67.5731 87.4517 63.7139 81.7959 61.2131 73.3723C59.9603 69.1522 62.1205 68.6374 61.1259 66.61C59.4001 67.9354 57.2968 69.3377 56.4146 71.3884C54.6636 75.4498 53.4476 79.5697 52.0136 83.8115C55.8913 83.0828 60.4014 81.3496 63.8765 83.7514L62.2983 86.5693L69.1195 92.3805C69.3577 92.5828 69.4868 93.161 69.4935 93.3817C69.5002 93.6023 68.6298 93.5989 68.3866 93.39L60.6177 86.7414L62.0668 84.1659C58.1958 82.8973 52.8472 85.4812 50.8932 85.1787C50.5846 85.1302 50.5276 84.1742 50.6366 83.855L54.8011 71.5739C50.1586 73.0898 45.8867 69.6569 40.9775 71.1795L36.2461 72.6469C32.8833 72.2475 29.7251 71.8748 26.3472 71.7845C24.9451 74.3099 21.8187 78.3295 19.3817 79.202C19.1486 79.2855 18.7142 78.3496 19.0211 78.1507C24.9283 74.3049 26.9409 66.3543 32.4791 59.6923C37.0914 54.1435 33.0946 55.0627 39.614 47.7155C37.4738 44.1371 34.1496 41.3493 30.287 39.6562C28.5276 41.1287 27.3351 43.5204 25.4868 44.5867C22.9844 46.0291 21.1898 47.4196 19.3532 49.6542C14.9472 55.0159 10.4455 60.0634 6.3783 65.7276C4.35894 68.5404 2.43014 71.5171 1.53451 74.925C0.472836 78.9646 2.86119 83.1681 6.27935 85.2974C11.0879 88.2941 15.9736 90.5621 21.3022 92.4658L38.3561 98.5561C38.237 95.9438 35.379 91.1688 35.914 90.059C36.0096 89.8601 36.7459 90.1476 36.8902 90.4484C38.4818 93.7343 39.8136 98.1784 40.3285 102.248C41.5646 111.999 42.6397 121.444 43.3609 131.269C43.7835 137.029 41.001 144.354 43.4162 148.974C43.5252 149.183 43.4363 149.756 43.2904 149.833C43.0992 149.935 42.5072 149.738 42.3931 149.524C39.8068 144.672 42.217 138.563 42.113 132.301C42.0258 127.063 41.3952 122.034 40.7696 116.856L38.7385 100.06L21.2954 93.8162C15.7221 91.8206 10.563 89.5309 5.5615 86.357C1.63682 83.8667 -0.880675 79.2571 0.288343 74.6175C1.03638 71.6458 2.55426 68.8446 4.34552 66.3326C9.21951 59.4985 14.5782 53.3329 20.0157 46.96C21.3592 45.3839 23.132 44.7421 24.7589 43.5488C26.6307 42.1766 28.0546 39.922 29.7989 38.2272C30.3591 38.2573 31.0401 38.5364 31.7982 38.9008C35.7212 36.7381 37.4806 26.0749 39.6492 23.6815L44.7211 18.0875C45.2259 17.5309 46.5845 16.1955 47.3778 16.3109L53.8988 17.2518C55.145 16.4245 56.5891 15.5337 57.7212 14.6462C58.5598 13.9894 58.9623 12.7074 60.1749 12.4183C62.6824 11.82 67.6117 10.0985 68.9602 12.2545C76.142 12.5253 83.0739 16.0802 85.947 22.7221L89.4457 30.8131C89.8515 31.7524 91.3023 32.4427 91.294 33.6043C91.2738 36.5642 88.0033 36.6177 88.5165 37.8645C88.6641 38.2222 89.2192 38.7153 89.5715 39.1565C92.2047 42.4591 91.0927 47.4648 87.8355 50.0904C88.3052 58.1664 83.7431 58.7764 84.6841 65.1677C87.9311 66.0518 89.0364 69.5784 91.4852 71.1912C95.4484 73.7985 100.757 74.8882 105.25 76.0448C110.428 77.3768 113.039 80.2399 116.378 83.9536C123.617 92.0028 131.361 99.5038 137.704 108.377C141.478 113.657 142.251 117.72 138.784 123.615C134.959 130.116 130.37 135.896 125.425 141.573C124.224 142.952 122.77 143.529 121.279 144.578C118.716 146.382 117.65 149.993 115.813 148.076L114.711 149.626C114.592 149.793 114.086 149.893 113.879 149.89C113.673 149.887 113.656 149.128 113.759 148.954L115.149 146.629C113.369 144.127 111.006 142.053 108.366 140.617L105.21 142.058C105.483 144.396 105.173 147.358 103.997 149.487C103.848 149.758 103.091 150.142 102.942 149.937C102.112 148.785 104.787 147.075 103.902 142.065C102.751 135.563 102.87 129.504 103.556 122.898C104.064 118.004 106.181 96.945 107.917 93.8881C108.043 93.6675 108.816 94.2976 108.755 94.6318L106.833 105.36C111.835 108.658 115.811 112.447 120.077 116.735C121.487 115.437 127.513 113.429 128.033 114.82C128.646 116.46 122.353 114.608 119.542 119.66C117.464 123.396 115.226 126.814 112.621 130.206C111.588 131.552 111.265 132.899 111.01 134.644L107.937 138.871C111.642 140.819 114.663 143.482 117.009 147.127C118.326 145.76 119.396 144.284 120.736 143.373C121.898 142.583 123.216 142.083 124.169 141.012C128.973 135.608 133.31 130.079 137.156 123.924C140.872 117.976 140.525 114.317 136.497 108.837C130.051 100.065 122.403 92.561 115.114 84.5185C112.174 81.2728 109.909 78.5251 105.258 77.4253C100.839 76.3807 96.3776 74.8414 91.8592 73.2202L95.5591 84.1608C95.6379 84.3948 95.5977 85.0299 95.5205 85.2238C95.1029 86.2651 87.4129 82.9708 84.1859 84.1308L86.2321 88.6267C81.5829 92.2535 76.9672 95.9806 72.7004 99.6843C72.5024 99.8548 71.7444 99.8063 71.6974 99.5991C71.6504 99.3918 71.7343 98.7835 71.9825 98.5796L84.7461 88.162C84.3402 87.2679 83.1796 83.7363 81.9871 85.2121C81.8328 85.4027 81.1418 84.6272 81.3581 84.4099C82.6865 83.0711 85.6065 82.2973 87.6292 82.6951L94.1352 83.977C92.6642 79.6432 91.5338 75.5919 89.7845 71.6308C88.7882 69.3744 86.633 67.8368 84.6723 66.4429C84.7025 67.5092 84.9004 68.1878 85.1654 69.2274C86.2019 73.2821 81.7003 81.8945 79.4746 85.5247L70.7548 99.7445C70.1728 100.695 69.7938 102.021 69.7921 103.243L69.7451 149.074L69.7384 149.076ZM50.6484 40.0724C60.9246 34.1458 72.531 31.5753 84.2631 32.2137C85.9772 32.3073 87.7936 32.8054 89.0079 33.4622C88.6222 34.211 88.2397 35.0634 88.5366 35.294C88.9542 35.5815 89.8801 34.6138 89.9388 34.109C90.1585 32.1953 88.4712 32.8505 87.5605 30.0293C86.6363 27.1663 85.6216 24.4771 83.993 21.9817C80.5464 16.7003 74.8438 13.6049 68.5828 13.5999L66.966 12.3264C64.7487 12.7743 59.0948 12.9982 58.8114 15.8078C49.6907 20.1951 47.0541 28.3429 48.4026 38.0935C48.8118 41.0468 46.608 41.9744 48.0705 43.4368C48.3975 43.7644 49.1842 43.9583 49.8299 43.8864L48.5804 42.3036C48.8185 41.6969 49.6873 40.6306 50.65 40.0741L50.6484 40.0724ZM52.6476 18.3733L47.9246 17.5911C47.4482 17.5126 46.5123 18.0825 46.1786 18.4519L50.962 19.2274C51.5842 19.3276 52.2887 18.98 52.6476 18.3716V18.3733ZM48.1795 23.3138C46.1299 23.6865 45.9203 25.2893 45.0465 26.4058L45.3299 31.7307C45.4456 33.9152 44.0804 39.9688 41.8145 38.396C45.5547 33.4873 43.3961 31.1925 43.9798 25.6955C44.0586 24.9601 45.3199 23.8236 45.7442 23.15C47.6076 20.1934 49.5062 23.9422 50.6551 20.5143C49.4374 20.4257 47.3744 19.4246 46.0427 20.1683C38.0357 24.6459 39.9595 27.2766 35.7446 36.2634C35.218 37.3865 34.1177 38.4094 33.1248 39.5058C35.3639 41.1504 37.4738 42.9187 39.3909 44.9761C43.7332 40.9248 45.4423 45.5711 47.2788 39.1281C46.618 34.7174 46.6314 30.5875 47.6311 26.4726L46.5056 26.6582C46.3782 26.6799 46.2675 26.2019 46.2205 26.0231L48.1795 23.3171V23.3138ZM74.3608 65.1058C76.5496 64.6997 78.4733 63.9977 80.5598 63.4595C85.474 57.0282 85.9487 55.8633 84.8065 47.8091L83.198 36.4757L79.8201 33.3669C71.684 33.4522 63.8782 35.2589 56.4934 38.4763L54.5932 42.8134L57.9593 54.9006C58.5145 56.8945 59.2156 59.089 60.4567 60.7202C62.5616 63.4863 65.8188 65.1911 68.9971 66.1036L74.3625 65.1075L74.3608 65.1058ZM85.4723 34.0522C85.4153 33.5374 84.0668 33.4321 84.04 33.6043L86.477 50.4097C86.5743 45.2369 85.994 38.7353 85.4723 34.0522ZM86.9869 37.3899C87.2837 36.1765 87.2938 35.4144 87.012 34.6973L86.9869 37.3899ZM54.6804 39.474L53.9105 39.5175L53.6975 40.2362C53.6556 40.3749 54.1554 40.5404 54.2191 40.41L54.6804 39.4757V39.474ZM87.3139 39.4022L87.8875 48.0798C90.1719 46.4653 90.6046 39.7431 87.3139 39.4022ZM56.371 54.7167L52.7214 40.9432C52.6392 40.6356 51.9365 40.629 51.8409 40.7777C51.7453 40.9264 51.5322 41.4011 51.5876 41.5816C52.9009 45.8252 54.2309 50.6219 56.371 54.7167ZM49.1523 70.3087C51.2002 70.892 54.2829 71.0809 55.7941 69.6001C57.4797 67.9488 59.1082 66.2758 61.1142 65.039C61.349 64.5443 60.6831 63.6868 60.2051 63.3208C58.1405 61.7431 56.9664 59.5402 55.8695 57.1987C52.4614 56.0555 50.0513 53.159 49.5129 49.5322C49.1992 47.4146 50.9922 46.2514 50.4085 45.8268C48.9695 44.7806 48.6273 45.7349 46.4251 43.6474L43.5168 44.3026C42.3847 44.5566 40.6052 45.1265 40.3956 46.2881C40.5465 46.7645 41.1134 47.8876 40.7863 48.3038L36.7191 53.505C36.5245 56.1775 35.384 58.0243 33.8007 59.9932C31.2262 63.1938 29.1515 66.8073 27.1389 70.3873L36.4105 71.3483C40.6253 69.5884 44.4812 68.9783 49.1523 70.3087ZM54.9772 55.3619L51.9717 47.1221C48.8856 48.4024 52.5067 54.8304 54.9772 55.3619ZM63.6384 76.6899C69.6227 79.3373 76.4255 79.5897 82.3779 76.71C83.0622 75.0069 83.9847 72.9729 83.8052 71.2146L83.084 64.1197C82.2957 65.2011 81.5342 66.7454 80.4038 67.7098C77.9903 69.7705 74.1008 70.765 70.9644 69.9293C67.8281 69.0937 65.3776 67.2318 62.6287 65.4551C63.3851 71.9617 61.2299 70.9739 63.6384 76.6899ZM79.909 66.5616C80.2461 66.2841 80.1925 64.8919 79.7849 65.0106C76.7475 65.8897 73.383 66.6301 70.3623 67.0513C70.0722 67.0914 69.9195 67.805 70.0504 68.0524C70.8907 69.6552 76.5814 69.3093 79.909 66.5616ZM81.6718 78.5719C75.6674 80.5875 70.1577 80.3986 64.3059 78.4632C66.8687 83.8583 69.6193 88.6735 72.9318 93.7042C76.147 88.7036 79.0771 83.9386 81.6718 78.5719ZM109.671 134.109C110.255 132.257 110.409 130.972 111.431 129.657C114.386 125.844 116.871 121.913 119.21 117.616L113.819 112.472C111.625 110.379 109.279 108.721 106.697 106.848L104.591 125.256C103.987 130.532 104.11 135.555 105.061 140.622L106.577 140.109C106.85 140.017 106.308 138.981 106.468 138.684C107.139 137.44 109.213 135.568 109.673 134.111L109.671 134.109Z" fill="#187DDD"/>
<path d="M125.146 33.8228C123.093 36.5772 120.085 37.9126 116.763 37.5767C113.658 37.2625 110.852 35.4206 109.301 32.2434C105.48 33.1158 101.973 31.7019 99.885 28.6801C97.7398 25.5764 97.7616 21.6471 100.038 18.4297C97.874 15.2842 98.2178 11.7193 100.088 8.77603C101.995 5.77262 105.588 5.06397 109.054 5.08402C111 2.49511 113.762 0.514562 116.837 0.0749978C121.196 -0.550086 123.047 2.89957 126.08 4.21659C129.409 5.66231 133.932 5.0272 135.974 9.37604C137.678 13.0045 137.998 17.3734 134.748 20.7228C136.827 23.9034 136.596 27.6455 134.531 30.5553C132.519 33.3916 128.918 34.8106 125.146 33.8228ZM124.706 32.3537C128.347 33.8613 131.588 32.2033 133.496 29.8083C135.833 26.8767 134.724 23.4003 133.444 20.564C135.94 17.3985 136.998 13.526 134.754 9.93093C132.822 6.83727 129.186 5.24614 125.201 6.43113C123.68 3.1486 120.644 1.33854 117.326 1.4338C114.009 1.52907 111.379 3.67508 109.861 6.78044C106.294 5.67067 103 6.88072 101.124 9.6C99.2275 12.351 99.4389 15.7355 101.584 18.6002C99.0883 21.5568 98.877 25.2889 101.123 28.2572C103.09 30.8562 106.55 31.9559 110.034 30.7542C111.243 34.0585 113.871 36.0674 116.922 36.3683C120.122 36.6842 122.796 35.0981 124.706 32.352V32.3537Z" fill="#187DDD"/>
<path d="M99.4506 120.549C94.6487 120.863 90.2075 121.003 85.5381 121.077C84.1343 121.099 82.7019 119.982 82.66 118.533L82.2357 104.222C82.1703 102.012 81.7258 100.026 82.1065 97.7116L101.963 97.1016C103.018 99.5952 102.139 101.845 102.183 104.188L102.429 117.261C102.46 118.876 101.27 120.429 99.4523 120.547L99.4506 120.549ZM101.302 102.32L101.054 98.4169L83.242 98.9283L83.2923 102.684C94.2764 104.928 90.4389 105.518 101.302 102.321V102.32ZM101.18 117.348L100.807 103.794C89.9626 106.934 94.2378 106.043 83.6009 104.105L83.8005 117.962C83.8139 118.836 84.6475 119.887 85.5851 119.849L99.3181 119.304C100.217 119.269 101.207 118.361 101.178 117.348H101.18Z" fill="#187DDD"/>
<path d="M60.5828 120.73L46.9773 120.07C45.2531 119.986 43.7268 118.604 43.7755 116.839L44.1478 103.256C44.1746 102.255 43.5927 100.873 43.7453 99.8431L44.23 96.5723L64.1352 97.4013C64.6769 99.681 64.0295 101.742 63.9708 103.904L63.5934 117.623C63.5515 119.164 62.4831 120.82 60.5845 120.728L60.5828 120.73ZM62.9779 102.368L63.0282 98.6063L45.1508 97.8542L45.0552 101.815C55.6988 104.941 52.0106 104.441 62.9779 102.368ZM62.3338 117.915L62.6257 103.739C52.0223 105.651 55.8095 106.218 45.508 103.291L45.03 116.617C44.9965 117.541 45.7831 118.751 46.7525 118.8L60.7355 119.515C61.4533 119.552 62.3221 118.554 62.3355 117.915H62.3338Z" fill="#187DDD"/>
<path d="M77.8495 149.042C77.8495 149.37 77.5174 149.931 77.353 149.991C77.1367 150.072 76.6285 149.538 76.6268 149.194L76.4121 98.5841C76.4121 98.2966 76.8331 97.8537 77.0276 97.8153C77.2222 97.7769 77.6331 98.3585 77.6348 98.5841L77.8495 149.042Z" fill="#187DDD"/>
<path d="M105.032 35.3006C106.876 34.5101 108.781 35.4928 109.447 37.1358C110.096 38.7336 109.35 40.6055 107.687 41.2857C106.025 41.966 104.159 41.3676 103.34 39.6177C102.671 38.1887 103.139 36.1129 105.032 35.3006ZM105.997 36.3001C104.697 36.5424 104.17 37.7659 104.447 38.8422C104.674 39.728 105.739 40.44 106.71 40.2545C107.813 40.0439 108.444 39.0478 108.34 37.9146C108.259 37.0405 107.116 36.0912 105.997 36.2984V36.3001Z" fill="#187DDD"/>
<path d="M99.6554 40.5852C101.1 40.1389 102.398 41.1835 102.668 42.2682C102.995 43.5836 102.31 44.8855 101.002 45.2666C99.8533 45.5992 98.5233 44.8705 98.0956 43.7557C97.631 42.5456 98.1543 41.0481 99.6571 40.5852H99.6554ZM99.7225 41.9222C99.3099 42.0961 99.1875 43.3345 99.4894 43.6621C99.7913 43.9897 100.783 44.0632 101.145 43.7774C101.507 43.4916 101.571 42.5724 101.328 42.198C101.12 41.8771 100.18 41.7284 99.7208 41.9222H99.7225Z" fill="#187DDD"/>
<path d="M119.627 141.752C116.855 136.946 110.735 135.303 112.028 134.816C114.156 134.014 120.261 138.968 120.674 141.781C120.702 141.973 119.76 141.983 119.627 141.752Z" fill="#187DDD"/>
<path d="M33.7941 51.8334C30.9092 47.513 26.1292 45.7648 26.8705 44.9592C27.8836 43.8578 34.6578 49.5504 34.9396 51.9337C34.9681 52.1711 33.9886 52.1243 33.7941 51.8318V51.8334Z" fill="#187DDD"/>
<path d="M77.9501 57.5848C78.0843 58.942 74.1529 55.8951 70.1695 59.4517C69.99 59.6122 69.3292 59.7208 69.1028 59.6473C68.821 59.5537 68.9787 58.7698 69.2152 58.5726C72.9201 55.5057 77.8008 56.0739 77.9501 57.5848Z" fill="#187DDD"/>
<path d="M65.0894 38.2268C64.8999 41.404 57.2383 42.6692 58.2799 41.2636C59.2476 39.96 61.8976 40.8257 64.1183 38.2736C64.2491 38.1232 65.1011 38.0262 65.0894 38.2268Z" fill="#187DDD"/>
<path d="M79.6138 37.0977C77.4988 38.1239 72.8948 38.2141 72.2273 36.5127C72.1401 36.2887 72.9401 36.028 73.1682 36.1132C75.9457 37.1545 77.4485 36.2637 79.6658 36.1483C79.867 36.1383 79.8201 36.999 79.6138 37.0977Z" fill="#187DDD"/>
<path d="M73.6114 51.3759C72.1506 52.9018 68.8448 51.6082 69.8679 51.2054C70.0155 51.1469 70.2906 51.0349 70.4901 50.9881L73.2475 50.3463C73.3968 50.3112 73.8245 50.1859 73.8245 50.3246C73.8245 50.5318 73.7557 51.2271 73.6114 51.3775V51.3759Z" fill="#187DDD"/>
<path d="M76.8967 42.9936C76.474 42.9836 75.7881 42.285 75.7813 41.9006C75.7746 41.5162 76.1252 40.5785 76.4791 40.4331C77.1432 40.1624 78.0674 40.7189 78.1647 41.2421C78.2955 41.9474 78.1764 43.0237 76.8967 42.9936Z" fill="#187DDD"/>
<path d="M63.8181 45.8481C63.0282 46.1088 62.2852 45.564 62.1577 45.1277C61.9699 44.4893 62.2567 43.4012 63.164 43.2976C63.6035 43.2475 64.3783 43.9077 64.4806 44.3004C64.5813 44.6932 64.2408 45.7077 63.8198 45.8481H63.8181Z" fill="#187DDD"/>
<path d="M81.1332 56.3294C81.1768 56.6787 81.2137 57.12 81.2238 57.2771C81.2372 57.5127 80.4371 57.4007 80.3181 57.1985L78.8203 54.6681C79.7528 53.8341 80.9655 54.9773 81.1332 56.3311V56.3294Z" fill="#187DDD"/>
<path d="M60.5559 28.8844C60.5828 29.2922 60.1534 29.9591 59.9437 30.0961C59.7341 30.2332 59.2829 29.6148 59.2628 29.2755L58.5533 17.4039C58.5349 17.0847 58.7579 16.6117 58.8938 16.4379C59.0297 16.2641 59.7576 16.849 59.7794 17.1549L60.5542 28.8844H60.5559Z" fill="#187DDD"/>
<path d="M72.7544 26.2248L68.3131 15.2808C68.2141 15.0385 68.4372 14.3499 68.5831 14.2111C68.7659 14.0373 69.2775 14.3683 69.4033 14.6724L73.9418 25.7317C74.0525 26.0025 74.0056 26.5323 73.9452 26.7329C73.8647 27.0003 72.907 26.6042 72.7527 26.2248H72.7544Z" fill="#187DDD"/>
<path d="M50.8531 37.7003C50.6502 37.8641 49.9592 37.9593 49.8887 37.7471C49.8183 37.5348 49.9089 36.8445 50.0833 36.6991C51.2691 35.7147 57.2903 31.4344 58.404 32.3018C58.6203 32.4706 58.2027 33.211 57.8991 33.3581C55.5225 34.5063 53.0553 35.9236 50.8515 37.7003H50.8531Z" fill="#187DDD"/>
<path d="M85.4269 30.3819C82.5304 29.6716 79.3889 29.2905 76.9285 29.1568C76.6266 29.1401 76.1938 28.7406 76.1016 28.5518C75.471 27.2732 84.5682 28.3362 86.0995 29.695C86.2588 29.837 85.6399 30.4337 85.4269 30.3819Z" fill="#187DDD"/>
<path d="M115.751 21.5357C116.102 17.2086 120.709 17.1066 120.292 14.5929C120.119 13.55 119.193 12.9316 118.084 12.9132C114.656 12.858 116.424 16.7356 113.242 16.2993C112.112 16.1439 111.163 15.1043 111.483 13.6887C112.422 9.52872 117.897 8.03955 121.759 10.0585C123.55 10.9945 124.58 12.7561 124.641 14.5595C124.793 19.1874 120.137 19.5735 119.8 21.9552C119.589 23.4477 118.831 24.1146 117.585 24.0544C116.338 23.9942 115.632 23.0299 115.753 21.5373L115.751 21.5357ZM116.951 21.8465C116.941 22.2778 117.623 23.0048 117.876 22.8594C119.235 22.0872 117.865 20.598 121.025 18.6359C122.891 17.476 123.851 15.7461 123.299 13.6185C122.878 11.9973 121.337 10.7455 119.359 10.4396C116.603 10.0151 113.586 10.8842 112.696 13.7455C112.58 14.1199 112.858 14.979 113.19 15.1194C114.965 15.8731 114 11.6162 118.096 11.7199C119.673 11.76 121.018 12.6441 121.367 13.9528C122.442 17.9774 117.048 17.6648 116.952 21.8432L116.951 21.8465Z" fill="#187DDD"/>
<path d="M116.758 24.9263C118.055 24.2862 119.4 24.8678 119.884 25.9993C120.369 27.1308 120.096 28.5097 118.689 29.1247C117.853 29.4891 116.429 29.1882 115.836 28.2172C115.217 27.2043 115.394 25.6015 116.76 24.9263H116.758ZM117.104 26.1397C116.701 26.6244 116.709 27.699 117.104 27.8461C117.449 27.9748 118.219 28.0784 118.477 27.8428C118.789 27.557 118.863 26.6545 118.648 26.2934C118.47 25.9926 117.328 25.8689 117.104 26.1397Z" fill="#187DDD"/>
</g>
<defs>
<clipPath id="clip0_213_3562">
<rect width="141" height="150" fill="white"/>
</clipPath>
</defs>
</svg>
