<svg width="253" height="150" viewBox="0 0 253 150" fill="none" xmlns="http://www.w3.org/2000/svg">
<g clip-path="url(#clip0_264_8915)">
<path d="M69.7386 149.075C69.7386 149.379 69.4317 149.849 69.2858 149.911C69.0929 149.993 68.526 149.494 68.526 149.281L68.5327 103.255C68.5327 101.679 69.0325 100.175 69.7755 98.9195L72.0901 95.0019C67.5734 87.4507 63.7141 81.7949 61.2134 73.3713C59.9605 69.1512 62.1207 68.6364 61.1262 66.6091C59.4003 67.9344 57.2971 69.3367 56.4149 71.3874C54.6639 75.4488 53.4479 79.5687 52.0139 83.8106C55.8916 83.0818 60.4016 81.3487 63.8768 83.7504L62.2985 86.5683L69.1198 92.3795C69.3579 92.5818 69.4871 93.1601 69.4938 93.3807C69.5005 93.6013 68.63 93.598 68.3868 93.389L60.618 86.7404L62.0671 84.1649C58.1961 82.8963 52.8474 85.4802 50.8935 85.1777C50.5849 85.1292 50.5278 84.1732 50.6369 83.854L54.8014 71.573C50.1589 73.0889 45.887 69.6559 40.9778 71.1785L36.2464 72.646C32.8836 72.2465 29.7254 71.8738 26.3475 71.7835C24.9453 74.309 21.819 78.3285 19.382 79.201C19.1489 79.2846 18.7145 78.3486 19.0214 78.1497C24.9285 74.3039 26.9412 66.3533 32.4793 59.6914C37.0917 54.1425 33.0949 55.0617 39.6142 47.7145C37.4741 44.1361 34.1499 41.3483 30.2872 39.6553C28.5278 41.1277 27.3353 43.5194 25.487 44.5857C22.9846 46.0281 21.19 47.4187 19.3535 49.6532C14.9474 55.0149 10.4458 60.0624 6.37855 65.7266C4.35918 68.5395 2.43039 71.5161 1.53476 74.924C0.47308 78.9637 2.86143 83.1671 6.27959 85.2964C11.0882 88.2931 15.9739 90.5611 21.3024 92.4648L38.3563 98.5552C38.2372 95.9429 35.3792 91.1678 35.9143 90.0581C36.0099 89.8592 36.7462 90.1466 36.8904 90.4475C38.4821 93.7333 39.8138 98.1775 40.3287 102.247C41.5648 111.998 42.6399 121.443 43.3611 131.268C43.7838 137.028 41.0013 144.353 43.4165 148.973C43.5255 149.182 43.4366 149.755 43.2907 149.832C43.0995 149.934 42.5074 149.737 42.3934 149.523C39.8071 144.671 42.2172 138.562 42.1133 132.3C42.026 127.062 41.3954 122.033 40.7698 116.855L38.7387 100.059L21.2957 93.8152C15.7223 91.8196 10.5632 89.5299 5.56175 86.356C1.63707 83.8657 -0.880431 79.2561 0.288587 74.6165C1.03662 71.6448 2.5545 68.8437 4.34577 66.3316C9.21975 59.4975 14.5784 53.3319 20.016 46.959C21.3594 45.383 23.1322 44.7412 24.7591 43.5478C26.6309 42.1756 28.0549 39.921 29.7992 38.2262C30.3593 38.2563 31.0403 38.5354 31.7984 38.8998C35.7214 36.7371 37.4808 26.0739 39.6494 23.6805L44.7213 18.0865C45.2262 17.53 46.5847 16.1946 47.378 16.3099L53.899 17.2508C55.1452 16.4235 56.5893 15.5327 57.7214 14.6452C58.56 13.9884 58.9626 12.7065 60.1752 12.4173C62.6826 11.819 67.6119 10.0975 68.9604 12.2535C76.1423 12.5243 83.0742 16.0792 85.9472 22.7212L89.4459 30.8122C89.8518 31.7515 91.3026 32.4417 91.2942 33.6033C91.2741 36.5633 88.0035 36.6167 88.5167 37.8636C88.6643 38.2212 89.2195 38.7143 89.5717 39.1555C92.2049 42.4581 91.0929 47.4638 87.8358 50.0895C88.3054 58.1654 83.7434 58.7755 84.6843 65.1667C87.9314 66.0508 89.0367 69.5774 91.4854 71.1902C95.4487 73.7975 100.757 74.8872 105.25 76.0438C110.428 77.3759 113.039 80.2389 116.379 83.9526C123.617 92.0018 131.361 99.5028 137.704 108.376C141.478 113.656 142.251 117.719 138.785 123.614C134.959 130.115 130.37 135.895 125.425 141.572C124.225 142.951 122.77 143.528 121.279 144.577C118.717 146.381 117.65 149.993 115.813 148.076L114.711 149.625C114.592 149.792 114.086 149.892 113.88 149.889C113.673 149.886 113.656 149.127 113.759 148.953L115.149 146.628C113.37 144.126 111.006 142.052 108.367 140.616L105.21 142.057C105.483 144.395 105.173 147.357 103.997 149.486C103.848 149.757 103.092 150.141 102.942 149.936C102.112 148.784 104.787 147.074 103.902 142.064C102.751 135.562 102.87 129.503 103.556 122.897C104.064 118.003 106.181 96.944 107.917 93.8871C108.043 93.6665 108.816 94.2966 108.756 94.6309L106.834 105.359C111.835 108.657 115.812 112.446 120.077 116.734C121.487 115.436 127.514 113.428 128.034 114.819C128.646 116.459 122.353 114.607 119.542 119.659C117.464 123.395 115.226 126.813 112.622 130.205C111.588 131.551 111.265 132.898 111.01 134.643L107.937 138.87C111.642 140.819 114.663 143.481 117.009 147.126C118.326 145.759 119.396 144.283 120.736 143.372C121.898 142.582 123.217 142.082 124.169 141.011C128.973 135.607 133.31 130.078 137.156 123.923C140.873 117.975 140.525 114.316 136.497 108.836C130.051 100.064 122.403 92.5601 115.114 84.5175C112.174 81.2718 109.91 78.5241 105.259 77.4243C100.839 76.3798 96.3778 74.8404 91.8594 73.2192L95.5594 84.1599C95.6382 84.3939 95.5979 85.029 95.5208 85.2228C95.1032 86.2641 87.4131 82.9699 84.1862 84.1298L86.2324 88.6257C81.5831 92.2525 76.9674 95.9796 72.7006 99.6833C72.5027 99.8538 71.7446 99.8053 71.6976 99.5981C71.6507 99.3908 71.7345 98.7825 71.9828 98.5786L84.7464 88.1611C84.3405 87.2669 83.1798 83.7353 81.9873 85.2111C81.833 85.4017 81.142 84.6262 81.3584 84.4089C82.6867 83.0702 85.6068 82.2963 87.6295 82.6941L94.1354 83.976C92.6645 79.6422 91.534 75.5909 89.7847 71.6298C88.7884 69.3735 86.6332 67.8358 84.6726 66.4419C84.7028 67.5082 84.9007 68.1868 85.1657 69.2264C86.2022 73.2811 81.7005 81.8935 79.4749 85.5237L70.755 99.7435C70.173 100.694 69.794 102.02 69.7923 103.242L69.7454 149.073L69.7386 149.075ZM50.6486 40.0714C60.9249 34.1448 72.5312 31.5743 84.2633 32.2127C85.9774 32.3063 87.7939 32.8044 89.0082 33.4612C88.6224 34.21 88.24 35.0624 88.5369 35.293C88.9545 35.5805 89.8803 34.6128 89.939 34.1081C90.1587 32.1944 88.4715 32.8495 87.5607 30.0283C86.6366 27.1653 85.6219 24.4761 83.9933 21.9808C80.5466 16.6993 74.8441 13.604 68.5831 13.599L66.9662 12.3254C64.7489 12.7733 59.0951 12.9973 58.8116 15.8068C49.6909 20.1941 47.0543 28.3419 48.4028 38.0925C48.8121 41.0458 46.6082 41.9734 48.0707 43.4358C48.3978 43.7634 49.1844 43.9573 49.8301 43.8854L48.5806 42.3027C48.8188 41.696 49.6876 40.6296 50.6503 40.0731L50.6486 40.0714ZM52.6478 18.3723L47.9248 17.5901C47.4485 17.5116 46.5126 18.0815 46.1788 18.4509L50.9622 19.2264C51.5845 19.3267 52.2889 18.979 52.6478 18.3707V18.3723ZM48.1797 23.3128C46.1302 23.6855 45.9205 25.2884 45.0467 26.4048L45.3302 31.7297C45.4459 33.9142 44.0806 39.9678 41.8147 38.3951C45.5549 33.4863 43.3963 31.1916 43.98 25.6945C44.0588 24.9591 45.3201 23.8226 45.7444 23.149C47.6078 20.1924 49.5064 23.9412 50.6553 20.5133C49.4377 20.4247 47.3747 19.4236 46.043 20.1673C38.036 24.6449 39.9597 27.2756 35.7449 36.2624C35.2182 37.3856 34.118 38.4084 33.1251 39.5048C35.3642 41.1494 37.4741 42.9177 39.3911 44.9751C43.7335 40.9238 45.4425 45.5701 47.2791 39.1271C46.6183 34.7164 46.6317 30.5865 47.6313 26.4717L46.5059 26.6572C46.3784 26.6789 46.2677 26.2009 46.2208 26.0221L48.1797 23.3162V23.3128ZM74.361 65.1048C76.5498 64.6987 78.4736 63.9967 80.56 63.4586C85.4743 57.0272 85.9489 55.8623 84.8067 47.8081L83.1983 36.4747L79.8204 33.366C71.6842 33.4512 63.8785 35.2579 56.4937 38.4753L54.5934 42.8124L57.9596 54.8996C58.5147 56.8935 59.2158 59.088 60.4569 60.7192C62.5619 63.4853 65.819 65.1901 68.9973 66.1026L74.3627 65.1065L74.361 65.1048ZM85.4726 34.0512C85.4156 33.5365 84.0671 33.4312 84.0403 33.6033L86.4772 50.4087C86.5745 45.2359 85.9942 38.7343 85.4726 34.0512ZM86.9871 37.3889C87.284 36.1755 87.294 35.4134 87.0123 34.6964L86.9871 37.3889ZM54.6806 39.4731L53.9108 39.5165L53.6978 40.2352C53.6558 40.3739 54.1557 40.5394 54.2194 40.409L54.6806 39.4747V39.4731ZM87.3142 39.4012L87.8878 48.0788C90.1721 46.4643 90.6049 39.7422 87.3142 39.4012ZM56.3713 54.7158L52.7216 40.9422C52.6395 40.6347 51.9367 40.628 51.8411 40.7767C51.7455 40.9255 51.5325 41.4001 51.5878 41.5806C52.9011 45.8242 54.2311 50.621 56.3713 54.7158ZM49.1525 70.3078C51.2004 70.8911 54.2831 71.0799 55.7943 69.5991C57.4799 67.9478 59.1085 66.2748 61.1144 65.038C61.3492 64.5433 60.6834 63.6859 60.2054 63.3198C58.1407 61.7421 56.9667 59.5393 55.8698 57.1977C52.4617 56.0545 50.0515 53.1581 49.5131 49.5312C49.1995 47.4136 50.9924 46.2504 50.4088 45.8259C48.9697 44.7796 48.6276 45.7339 46.4254 43.6464L43.5171 44.3016C42.385 44.5556 40.6054 45.1256 40.3958 46.2872C40.5467 46.7635 41.1136 47.8866 40.7866 48.3028L36.7193 53.504C36.5248 56.1765 35.3843 58.0234 33.801 59.9922C31.2265 63.1928 29.1518 66.8063 27.1391 70.3863L36.4107 71.3473C40.6256 69.5874 44.4815 68.9774 49.1525 70.3078ZM54.9775 55.3609L51.9719 47.1212C48.8859 48.4014 52.507 54.8294 54.9775 55.3609ZM63.6386 76.6889C69.6229 79.3364 76.4257 79.5887 82.3781 76.709C83.0624 75.0059 83.9849 72.9719 83.8054 71.2136L83.0842 64.1188C82.2959 65.2001 81.5345 66.7444 80.4041 67.7088C77.9905 69.7696 74.1011 70.764 70.9647 69.9284C67.8283 69.0927 65.3779 67.2308 62.6289 65.4542C63.3854 71.9607 61.2301 70.9729 63.6386 76.6889ZM79.9093 66.5606C80.2464 66.2831 80.1927 64.8909 79.7852 65.0096C76.7477 65.8887 73.3832 66.6291 70.3626 67.0503C70.0724 67.0904 69.9198 67.8041 70.0506 68.0514C70.8909 69.6543 76.5817 69.3083 79.9093 66.5606ZM81.672 78.5709C75.6676 80.5865 70.158 80.3977 64.3062 78.4622C66.8689 83.8574 69.6196 88.6725 72.9321 93.7033C76.1473 88.7026 79.0774 83.9376 81.672 78.5709ZM109.671 134.108C110.255 132.256 110.409 130.971 111.431 129.656C114.386 125.843 116.872 121.912 119.21 117.615L113.819 112.471C111.625 110.378 109.279 108.72 106.698 106.847L104.591 125.255C103.987 130.531 104.11 135.554 105.061 140.621L106.577 140.108C106.85 140.016 106.309 138.98 106.468 138.683C107.139 137.439 109.214 135.567 109.673 134.11L109.671 134.108Z" fill="#187DDD"/>
<path d="M125.145 33.8228C123.092 36.5772 120.085 37.9126 116.763 37.5767C113.658 37.2625 110.852 35.4206 109.301 32.2434C105.48 33.1158 101.973 31.7019 99.8847 28.6801C97.7396 25.5764 97.7614 21.6471 100.037 18.4297C97.8738 15.2842 98.2176 11.7193 100.088 8.77603C101.995 5.77262 105.587 5.06397 109.054 5.08402C111 2.49511 113.762 0.514562 116.836 0.0749978C121.195 -0.550086 123.047 2.89957 126.079 4.21659C129.409 5.66231 133.932 5.0272 135.973 9.37604C137.677 13.0045 137.998 17.3734 134.747 20.7228C136.827 23.9034 136.596 27.6455 134.531 30.5553C132.518 33.3916 128.917 34.8106 125.145 33.8228ZM124.706 32.3537C128.347 33.8613 131.587 32.2033 133.496 29.8083C135.832 26.8767 134.724 23.4003 133.444 20.564C135.94 17.3985 136.998 13.526 134.754 9.93093C132.822 6.83727 129.186 5.24614 125.201 6.43113C123.679 3.1486 120.644 1.33854 117.326 1.4338C114.009 1.52907 111.379 3.67508 109.861 6.78044C106.293 5.67067 102.999 6.88072 101.124 9.6C99.2273 12.351 99.4386 15.7355 101.584 18.6002C99.0881 21.5568 98.8767 25.2889 101.123 28.2572C103.09 30.8562 106.55 31.9559 110.034 30.7542C111.243 34.0585 113.871 36.0674 116.922 36.3683C120.122 36.6842 122.795 35.0981 124.706 32.352V32.3537Z" fill="#187DDD"/>
<path d="M99.4504 120.549C94.6485 120.863 90.2072 121.003 85.5379 121.077C84.134 121.099 82.7017 119.982 82.6598 118.533L82.2354 104.222C82.17 102.012 81.7256 100.026 82.1063 97.7116L101.963 97.1016C103.018 99.5952 102.139 101.845 102.183 104.188L102.429 117.261C102.459 118.876 101.27 120.429 99.452 120.547L99.4504 120.549ZM101.302 102.32L101.054 98.4169L83.2418 98.9283L83.2921 102.684C94.2761 104.928 90.4387 105.518 101.302 102.321V102.32ZM101.18 117.348L100.807 103.794C89.9623 106.934 94.2376 106.043 83.6007 104.105L83.8003 117.962C83.8137 118.836 84.6473 119.887 85.5848 119.849L99.3178 119.304C100.217 119.269 101.206 118.361 101.178 117.348H101.18Z" fill="#187DDD"/>
<path d="M60.5826 120.73L46.977 120.07C45.2529 119.986 43.7266 118.604 43.7752 116.839L44.1476 103.256C44.1744 102.255 43.5924 100.873 43.745 99.8431L44.2298 96.5723L64.1349 97.4013C64.6767 99.681 64.0293 101.742 63.9706 103.904L63.5932 117.623C63.5513 119.164 62.4829 120.82 60.5843 120.728L60.5826 120.73ZM62.9776 102.368L63.028 98.6063L45.1505 97.8542L45.0549 101.815C55.6985 104.941 52.0103 104.441 62.9776 102.368ZM62.3336 117.915L62.6254 103.739C52.0221 105.651 55.8092 106.218 45.5078 103.291L45.0298 116.617C44.9962 117.541 45.7829 118.751 46.7523 118.8L60.7352 119.515C61.4531 119.552 62.3219 118.554 62.3353 117.915H62.3336Z" fill="#187DDD"/>
<path d="M77.8495 149.043C77.8495 149.371 77.5174 149.932 77.353 149.992C77.1367 150.073 76.6285 149.539 76.6268 149.195L76.4121 98.5851C76.4121 98.2976 76.8331 97.8547 77.0276 97.8163C77.2222 97.7778 77.6331 98.3595 77.6348 98.5851L77.8495 149.043Z" fill="#187DDD"/>
<path d="M105.032 35.2996C106.875 34.5091 108.781 35.4919 109.447 37.1348C110.096 38.7326 109.349 40.6045 107.687 41.2847C106.025 41.965 104.158 41.3666 103.34 39.6167C102.671 38.1877 103.139 36.1119 105.032 35.2996ZM105.997 36.2991C104.697 36.5415 104.17 37.7649 104.447 38.8412C104.673 39.727 105.738 40.439 106.709 40.2535C107.813 40.0429 108.444 39.0468 108.34 37.9136C108.259 37.0395 107.115 36.0902 105.997 36.2974V36.2991Z" fill="#187DDD"/>
<path d="M99.6549 40.5861C101.099 40.1399 102.397 41.1845 102.667 42.2692C102.994 43.5845 102.31 44.8865 101.002 45.2676C99.8529 45.6002 98.5228 44.8715 98.0951 43.7567C97.6305 42.5466 98.1538 41.0491 99.6566 40.5861H99.6549ZM99.722 41.9232C99.3094 42.097 99.187 43.3355 99.4889 43.6631C99.7908 43.9907 100.782 44.0642 101.144 43.7784C101.507 43.4926 101.57 42.5734 101.327 42.199C101.119 41.8781 100.18 41.7293 99.7204 41.9232H99.722Z" fill="#187DDD"/>
<path d="M119.627 141.751C116.855 136.945 110.735 135.302 112.028 134.815C114.156 134.013 120.261 138.967 120.674 141.78C120.702 141.972 119.76 141.982 119.627 141.751Z" fill="#187DDD"/>
<path d="M33.7943 51.8344C30.9095 47.514 26.1294 45.7658 26.8708 44.9602C27.8838 43.8587 34.6581 49.5514 34.9398 51.9347C34.9684 52.172 33.9889 52.1252 33.7943 51.8327V51.8344Z" fill="#187DDD"/>
<path d="M77.9501 57.5839C78.0843 58.941 74.1529 55.8941 70.1695 59.4507C69.99 59.6112 69.3292 59.7198 69.1028 59.6463C68.821 59.5527 68.9787 58.7688 69.2152 58.5716C72.9201 55.5047 77.8008 56.073 77.9501 57.5839Z" fill="#187DDD"/>
<path d="M65.0894 38.2268C64.8999 41.404 57.2383 42.6692 58.2799 41.2636C59.2476 39.96 61.8976 40.8257 64.1183 38.2736C64.2491 38.1232 65.1011 38.0262 65.0894 38.2268Z" fill="#187DDD"/>
<path d="M79.614 37.0967C77.499 38.1229 72.8951 38.2131 72.2276 36.5117C72.1403 36.2877 72.9404 36.027 73.1685 36.1123C75.9459 37.1535 77.4487 36.2627 79.666 36.1474C79.8673 36.1373 79.8203 36.9981 79.614 37.0967Z" fill="#187DDD"/>
<path d="M73.6112 51.3749C72.1503 52.9008 68.8446 51.6072 69.8677 51.2044C70.0153 51.1459 70.2903 51.0339 70.4899 50.9871L73.2472 50.3453C73.3965 50.3102 73.8242 50.1849 73.8242 50.3236C73.8242 50.5309 73.7554 51.2261 73.6112 51.3766V51.3749Z" fill="#187DDD"/>
<path d="M76.8969 42.9946C76.4743 42.9846 75.7883 42.2859 75.7816 41.9015C75.7749 41.5171 76.1254 40.5795 76.4793 40.4341C77.1435 40.1633 78.0676 40.7199 78.1649 41.243C78.2957 41.9483 78.1767 43.0247 76.8969 42.9946Z" fill="#187DDD"/>
<path d="M63.8179 45.8481C63.0279 46.1088 62.2849 45.564 62.1575 45.1277C61.9696 44.4893 62.2564 43.4012 63.1638 43.2976C63.6032 43.2475 64.3781 43.9077 64.4804 44.3004C64.581 44.6932 64.2406 45.7077 63.8196 45.8481H63.8179Z" fill="#187DDD"/>
<path d="M81.1334 56.3294C81.177 56.6787 81.2139 57.12 81.224 57.2771C81.2374 57.5127 80.4374 57.4007 80.3183 57.1985L78.8206 54.6681C79.7531 53.8341 80.9657 54.9773 81.1334 56.3311V56.3294Z" fill="#187DDD"/>
<path d="M60.5559 28.8844C60.5828 29.2922 60.1534 29.9591 59.9437 30.0961C59.7341 30.2332 59.2829 29.6148 59.2628 29.2755L58.5533 17.4039C58.5349 17.0847 58.7579 16.6117 58.8938 16.4379C59.0297 16.2641 59.7576 16.849 59.7794 17.1549L60.5542 28.8844H60.5559Z" fill="#187DDD"/>
<path d="M72.7541 26.2258L68.3128 15.2818C68.2139 15.0394 68.437 14.3508 68.5829 14.2121C68.7657 14.0383 69.2772 14.3692 69.403 14.6734L73.9416 25.7327C74.0523 26.0035 74.0053 26.5333 73.9449 26.7339C73.8644 27.0013 72.9067 26.6052 72.7524 26.2258H72.7541Z" fill="#187DDD"/>
<path d="M50.8531 37.7012C50.6502 37.865 49.9592 37.9603 49.8887 37.748C49.8183 37.5358 49.9089 36.8455 50.0833 36.7001C51.2691 35.7157 57.2903 31.4354 58.404 32.3028C58.6203 32.4716 58.2027 33.212 57.8991 33.3591C55.5225 34.5073 53.0553 35.9246 50.8515 37.7012H50.8531Z" fill="#187DDD"/>
<path d="M85.4271 30.3819C82.5306 29.6716 79.3892 29.2905 76.9287 29.1568C76.6268 29.1401 76.1941 28.7406 76.1018 28.5518C75.4712 27.2732 84.5684 28.3362 86.0997 29.695C86.259 29.837 85.6402 30.4337 85.4271 30.3819Z" fill="#187DDD"/>
<path d="M115.751 21.5357C116.102 17.2086 120.709 17.1066 120.291 14.5929C120.119 13.55 119.193 12.9316 118.084 12.9132C114.656 12.858 116.424 16.7356 113.242 16.2993C112.112 16.1439 111.162 15.1043 111.483 13.6887C112.422 9.52872 117.896 8.03955 121.759 10.0585C123.55 10.9945 124.58 12.7561 124.64 14.5595C124.793 19.1874 120.137 19.5735 119.8 21.9552C119.589 23.4477 118.831 24.1146 117.584 24.0544C116.338 23.9942 115.632 23.0299 115.753 21.5373L115.751 21.5357ZM116.95 21.8465C116.94 22.2778 117.623 23.0048 117.876 22.8594C119.235 22.0872 117.864 20.598 121.024 18.6359C122.891 17.476 123.85 15.7461 123.299 13.6185C122.878 11.9973 121.336 10.7455 119.359 10.4396C116.603 10.0151 113.586 10.8842 112.695 13.7455C112.58 14.1199 112.858 14.979 113.19 15.1194C114.965 15.8731 114 11.6162 118.096 11.7199C119.673 11.76 121.018 12.6441 121.367 13.9528C122.442 17.9774 117.048 17.6648 116.952 21.8432L116.95 21.8465Z" fill="#187DDD"/>
<path d="M116.758 24.9273C118.054 24.2871 119.399 24.8688 119.884 26.0003C120.369 27.1318 120.095 28.5106 118.688 29.1257C117.853 29.49 116.429 29.1892 115.835 28.2181C115.216 27.2053 115.394 25.6025 116.759 24.9273H116.758ZM117.103 26.1407C116.701 26.6253 116.709 27.7 117.103 27.8471C117.449 27.9758 118.218 28.0794 118.477 27.8438C118.789 27.558 118.862 26.6554 118.648 26.2944C118.47 25.9936 117.328 25.8699 117.103 26.1407Z" fill="#187DDD"/>
</g>
<g clip-path="url(#clip1_264_8915)">
<path d="M192.826 16.8286C202.659 18.3168 207.616 31.6577 205.98 40.4886C208.931 43.2076 208.597 47.7861 205.894 50.6355C206.772 51.806 206.559 53.2491 205.869 54.4347C208.785 61.1319 210.991 69.207 204.013 74.8022C210.574 78.5429 215.724 79.7185 222.444 82.8856C223.994 83.6164 225.093 85.6247 225.422 87.3002C226.563 93.0944 227.229 98.6595 227.402 104.624C227.687 114.472 227.588 124.064 226.648 133.806C226.335 137.053 225.412 140.244 223.436 142.71C221.629 144.966 218.899 145.438 215.909 145.754L216.562 149.132C216.604 149.346 216.28 149.841 216.097 149.943C215.914 150.045 215.422 149.571 215.365 149.342L214.498 145.893C209.808 145.677 205.273 145.431 200.576 144.866L190.737 143.684L190.655 149.28C190.651 149.484 190.247 149.936 190.086 149.994C189.925 150.053 189.472 149.486 189.47 149.289L189.403 143.468L182.615 142.336L182.336 140.57L179.804 140.123L179.407 137.96C177.435 137.527 175.794 136.973 174.058 135.995C170.939 139.309 169.165 141.264 164.312 141.933L162.679 149.255C162.624 149.503 162.102 149.913 161.877 149.931C161.652 149.949 161.392 149.265 161.461 148.943L162.981 141.791C155.864 140.164 153.226 132.828 152.398 126.278C151 115.238 150.024 97.2967 152.632 86.6715C153.184 84.4257 154.735 83.0094 156.743 82.2418L165.211 79.0078C167.914 77.976 170.419 76.7603 173.04 75.3423C166.395 69.9695 169.763 62.6887 170.345 56.229C167.105 54.3879 164.896 50.0402 166.926 46.5219C161.265 34.3031 165.691 20.2516 179.061 15.8654C182.303 14.8019 189.349 14.2233 191.171 16.546C191.269 16.6697 190.626 17.1496 190.351 17.0426C187.031 15.7567 182.148 15.9607 178.551 17.3737C166.978 21.9204 163.166 33.7663 167.614 44.9082C167.721 45.1791 168.067 45.8279 168.328 45.8095L169.62 45.7175C169.055 44.4099 169.167 43.9149 169.962 42.8146C172.372 39.4819 175.013 34.7579 176.231 31.0975C176.318 30.8366 176.907 30.4537 177.009 30.5507C178.377 31.8399 173.905 38.813 173.29 40.5036C182.432 37.3164 183.306 28.8433 184.355 27.9688C186.046 26.5541 184.068 35.482 183.893 36.0505C190.43 32.5807 191.381 24.7699 192.136 23.9906C192.321 23.8 193.007 24.3819 193.131 24.6578C195.582 30.1192 198.856 35.3633 203.2 39.4418C203.05 39.7829 202.926 40.0337 202.802 40.1826C202.636 40.3815 201.941 39.91 201.71 39.6959C197.757 36.0438 195.22 31.5155 192.542 26.8283C190.614 32.278 187.289 36.5923 181.9 38.3364L182.42 35.1124C179.841 38.6207 176.523 41.0387 172.342 42.3263C171.662 42.5353 170.61 44.0035 170.717 44.7109L171.231 48.0954C171.264 48.3111 171.073 48.8763 170.931 48.9967C170.196 49.6171 170.327 47.2409 168.973 47.1055C168.54 47.062 167.652 47.6974 167.57 48.1857C167.028 51.3863 168.838 54.5668 172.045 55.3779L171.471 53.1572C171.409 52.9181 171.729 52.184 171.934 52.2692C172.139 52.3545 172.568 52.7157 172.655 52.9599C175.335 60.5818 177.606 64.1051 185.435 67.0866L187.47 64.9629C188.002 64.4078 189.361 63.8426 190.168 64.09L194.802 65.5097C201.022 60.8359 202.294 55.7625 202.644 48.159C202.653 47.9734 203 47.4834 203.168 47.4115C203.389 47.3162 203.81 47.8847 203.82 48.1238L203.916 50.2877C206.934 48.9299 207.525 44.6105 205.73 42.1089C205.53 41.8313 204.406 41.4969 204.19 41.7611C203.124 43.0604 204.297 41.7277 203.2 43.7209C203.112 43.8781 202.495 43.2811 202.492 43.1005L202.445 40.5036L204.658 40.3297C205.716 34.7763 204.26 29.4269 201.503 24.5725C197.492 17.5125 191.042 18.474 191.88 17.2249C192.019 17.0175 192.537 16.7817 192.833 16.8252L192.826 16.8286ZM204.028 51.8579C203.812 52.1388 203.735 52.8378 203.995 53.0485C204.203 53.2174 205.089 53.2926 205.107 53.0251L205.178 52.0485C205.196 51.7826 204.191 51.6489 204.028 51.8596V51.8579ZM203.255 73.4878C211.684 68.3659 204.607 53.117 203.557 54.4615C203.471 54.5702 203.208 54.9364 203.179 55.0719C202.498 58.2942 200.889 61.5533 198.472 63.9997C198.265 65.7204 198.277 68.0164 198.48 69.5933C200.287 70.819 201.706 71.9996 203.257 73.4895L203.255 73.4878ZM171.628 56.9765C171.419 57.2089 171.504 58.0701 171.722 58.2942C171.941 58.5183 172.635 58.2808 172.798 58.0133C172.961 57.7457 172.924 57.2307 172.758 56.9648C172.625 56.7524 171.796 56.7909 171.63 56.9765H171.628ZM174.039 74.1617C175.935 72.1467 177.45 70.7889 179.645 69.5615L179.512 65.585C176.947 63.973 175.251 61.6737 173.825 59.2557L171.311 59.8326C169.887 63.7439 169.186 71.916 174.039 74.1617ZM189.5 75.3657L195.524 74.742C195.638 74.4644 195.552 73.5564 195.249 73.3658C195.007 73.2153 194.26 73.0748 193.908 73.1233L187.838 73.956C187.569 73.9928 186.896 73.6617 186.858 73.4025C186.829 73.2102 187.266 72.7688 187.494 72.7337L194.507 71.6517C194.653 70.8758 193.611 69.9127 192.935 70.0749L185.792 71.7788C185.519 71.8441 184.888 71.6517 184.796 71.3976C184.704 71.1434 185.313 70.5832 185.638 70.5581C190.118 70.212 188.638 65.6636 194.082 68.697C194.898 69.1518 195.604 69.2973 196.408 69.003C193.807 65.9947 192.643 66.0816 189.032 65.2673C186.749 67.6753 184.277 69.9795 182.341 72.6567C181.662 78.8439 183.343 85.5043 180.544 91.3353L186.683 94.5409C187.294 93.2566 187.678 91.6145 188.48 90.9055C190.49 89.1279 191.628 87.2935 191.515 84.5327L191.368 80.9425C191.316 79.6683 192.317 78.66 193.529 78.4961L194.343 78.3857C194.53 78.3606 194.888 79.0094 194.732 79.1165L194.015 79.6098C193.546 79.9325 192.937 80.2034 192.765 80.5395C192.623 80.8188 192.754 81.5177 192.838 81.9308C193.928 81.2318 194.707 80.787 195.465 80.0245C196.25 79.2369 196.081 77.0513 195.358 76.1466C193.111 75.8005 189.608 77.461 188.843 76.0998C188.74 75.9175 189.286 75.3875 189.502 75.3657H189.5ZM196.916 67.5231L196.968 65.7288C196.604 65.8676 195.735 66.3576 195.963 66.5833L196.915 67.5231H196.916ZM180.757 84.8605L180.895 72.2454L184.324 68.1702L180.913 66.5198V70.2254C180.913 72.018 179.825 73.7788 179.083 75.1433C179.247 78.5245 179.977 81.7619 180.757 84.8622V84.8605ZM192.685 87.0327C194.586 86.7601 195.661 86.5511 197.047 86.0394C197.596 82.2502 198.725 78.9242 198.777 75.1182C198.795 73.732 196.817 72.1183 197.21 70.5063L195.953 70.7187C195.141 70.8558 196.975 72.7571 197.054 75.5313C197.19 80.3188 198.082 80.3556 192.834 83.5093L192.685 87.0343V87.0327ZM173.9 95.7515L175.578 92.9891C178.64 92.8419 176.011 90.9456 179.18 90.4406C179.751 90.3503 180.242 88.9039 180.096 88.2634C179.012 83.4826 178.044 78.8807 177.539 74.0748C178.62 73.3223 179.308 72.6467 179.281 71.3892C177.073 72.6567 175.011 74.548 173.779 76.8556L170.316 83.3438L174.412 84.9976L176.06 83.7903C176.283 83.6264 176.932 83.608 177.14 83.7719C177.348 83.9358 176.997 84.6515 176.742 84.8622L170.503 89.9908L173.902 95.7515H173.9ZM217.827 144.224C224.021 143.665 225.288 136.398 225.618 131.475C226.224 122.482 226.352 113.696 226.098 104.631C225.93 98.601 225.31 92.8503 224.008 87.0745C223.587 85.21 222.234 84.0093 220.578 83.3522L206.022 77.5764L209.183 84.0327L204.508 85.9441L208.928 89.8286C203.938 98.4956 197.879 108.015 192.472 116C192.121 116.517 191.252 116.084 191.341 115.838C191.401 115.669 191.527 115.151 191.626 115C197.029 106.76 202.386 98.616 207.317 89.9841L200.836 84.6581C200.617 84.4792 200.624 83.5729 200.831 83.608C202.639 83.9174 202.794 85.1648 203.634 84.8421L207.483 83.3605C204.78 78.277 203.661 74.7085 198.918 71.4444C198.399 73.3474 200.73 73.1032 200.324 75.4961C199.368 81.1281 198.507 86.419 196.915 91.9138L189.648 117.007C189.989 118.415 190.656 120.187 190.678 121.602L190.752 126.552L210.117 126.972C211.958 117.609 214.285 112.987 213.924 103.302C213.914 103.051 214.328 102.328 214.528 102.437C214.728 102.546 215.11 103.034 215.12 103.26C215.57 113.067 213.287 117.734 211.372 127.187C213.37 127.498 219.273 133.01 217.56 133.711C216.647 134.083 214.114 128.854 210.703 128.493C201.903 128.214 193.418 128.232 184.583 127.339L183.72 141.281C194.049 142.756 207.872 145.122 217.823 144.225L217.827 144.224ZM160.325 119.925C158.364 119.437 158.475 117.527 157.874 116.442C157.112 115.067 156.679 113.913 157.132 112.405C157.31 111.816 156.995 110.507 157.391 110.117C157.74 109.775 158.825 109.487 159.342 109.554L161.592 109.847C161.23 108.862 161.025 107.699 161.431 107.153C161.924 106.487 163.188 106.47 163.833 106.793L167.313 108.532L173.293 97.2532L168.835 89.6965L173.259 86.0043L168.647 83.9023L171.78 77.6366C166.864 79.7268 162.107 81.6683 157.005 83.5311C155.488 84.0846 154.351 85.1983 153.929 86.8621C153.268 89.4758 152.733 92.1362 152.591 94.9606C152.049 105.666 152.324 116.239 153.785 126.823C154.314 130.647 155.429 134.093 157.709 137.037C160.688 140.883 165.805 141.588 169.612 138.528C174.543 134.565 176.492 128.92 179.239 123.325L188.646 100.521L176.219 94.3335L166.546 112.718L162.461 119.05C161.164 121.06 160.204 123.124 159.889 125.582C159.721 126.898 157.084 126.883 160.327 119.92L160.325 119.925ZM190.13 100.163L186.903 108.342C187.425 110.402 188.108 112.532 189.007 114.524C191.992 105.342 194.401 96.7298 196.623 87.7049L192.228 88.439C190.328 91.658 188.646 91.4406 187.967 95.0927L189.428 96.0091C190.052 96.4004 188.566 98.6478 188.923 98.9956L190.128 100.163H190.13ZM187.412 98.5207L188.136 96.6997L178.873 92.0125C178.464 92.3118 178.041 93.3703 178.273 93.8737L187.412 98.519V98.5207ZM165.729 109.114L162.488 107.781C161.874 109.482 166.08 111.631 166.476 110.144C166.545 109.888 166.04 109.243 165.728 109.114H165.729ZM179.222 126.651C179.959 127.533 183.509 127.304 183.759 126.147L189.381 126.356C189.353 124.535 189.769 122.202 189.2 120.383L186.108 110.494L184.385 114.318L187.71 119.032C187.87 119.259 188.081 119.997 187.898 120.09L187.227 120.432L183.841 115.743L179.221 126.652L179.222 126.651ZM164.209 113.606C164.696 113.147 165.082 112.489 165.256 111.875L159.204 110.843C158.926 110.796 158.199 111.229 158.329 111.39C158.458 111.551 158.834 112.077 159.072 112.146L164.209 113.606ZM162.619 116.211L163.552 114.86C161.704 114.298 160.381 113.88 158.397 113.686C158 113.647 158.441 115.094 158.845 115.203L162.619 116.213V116.211ZM161.614 117.724C161.282 117.055 160.112 116.887 159.555 117.32C159.51 117.567 160.114 118.198 160.511 118.514C160.807 118.749 161.795 118.089 161.614 117.724ZM179.771 136.481L180.311 129.043C179.952 128.559 178.917 127.948 178.538 127.951L174.885 134.828C176.372 135.925 178.128 136.468 179.771 136.481ZM182.516 139.123L183.16 129.274C183.18 128.965 182.677 128.376 182.366 128.361C182.056 128.346 181.59 128.94 181.568 129.278L180.969 138.908L182.517 139.123H182.516Z" fill="#187DDD"/>
<path d="M240.906 33.8356C238.812 36.4626 235.802 37.7853 232.413 37.4459C229.388 37.1432 226.612 35.18 225.1 32.2068C221.466 33.0446 217.786 31.6199 215.778 28.8641C213.543 25.7956 213.409 21.7924 215.734 18.5232C213.766 15.3795 213.817 11.6939 215.795 8.7174C217.835 5.6489 221.331 4.94658 224.758 4.97835C226.843 2.82957 229.36 0.0202668 232.767 0.00020038C236.341 -0.0198661 239.606 1.46672 241.618 4.67067C245.441 3.81617 249.034 5.35961 251.195 8.48831C253.743 12.1805 253.654 16.9697 250.545 20.4329C252.411 23.784 252.344 27.5063 250.18 30.4611C248.015 33.4158 244.567 34.8807 240.908 33.8372L240.906 33.8356ZM240.425 32.3088C243.906 33.7319 247.309 32.2821 249.24 29.5698C251.171 26.8558 251.012 23.2656 248.893 20.3576C251.898 17.5199 252.537 13.4932 250.617 10.005C248.68 6.48333 244.946 4.91146 240.97 6.09538C239.257 2.89646 236.195 1.10553 232.74 1.3597C229.658 1.58545 227.066 3.71249 225.531 6.70908C222.031 5.54356 218.746 6.83784 216.795 9.57858C214.864 12.2909 215.229 15.7189 217.338 18.5784C214.59 21.5532 214.961 25.217 216.763 28.125C218.798 31.4092 222.654 30.9092 225.716 31.1082C227.491 33.3356 229.492 36.2519 232.744 36.267C235.995 36.282 238.631 35.2285 240.423 32.3088H240.425Z" fill="#187DDD"/>
<path d="M220.865 35.2514C222.565 34.544 224.429 35.248 225.236 36.8366C226.043 38.4252 225.343 40.36 223.679 41.1225C222.07 41.8599 220.139 41.3215 219.323 39.7329C218.491 38.1108 219.068 36.0005 220.867 35.2514H220.865ZM221.504 36.3216C220.224 36.8768 219.983 38.2547 220.424 39.0841C220.924 40.0222 222.095 40.4118 222.952 40.1008C224.041 39.7061 224.439 38.4269 224.053 37.3366C223.778 36.5574 222.546 35.8701 221.504 36.3216Z" fill="#187DDD"/>
<path d="M215.397 40.5735C216.887 40.0535 218.159 40.9013 218.531 42.1655C218.85 43.2474 218.214 44.6704 217.186 45.0316C215.808 45.5166 214.548 44.9882 214.011 43.6303C213.627 42.6588 213.958 41.0752 215.397 40.5735ZM215.461 41.9631C215.03 42.4481 215.167 43.5919 215.597 43.7725C216.004 43.943 216.65 43.9865 216.932 43.7257C217.332 43.3561 217.419 42.423 217.154 42.0635C216.926 41.7558 215.723 41.6672 215.461 41.9631Z" fill="#187DDD"/>
<path d="M193.339 58.6634C194.21 60.0195 189.425 57.4661 186.507 59.9961C186.326 60.1533 185.442 60.1132 185.42 59.8925C185.214 57.8423 191.897 56.4143 193.339 58.6634Z" fill="#187DDD"/>
<path d="M195.656 38.3027C192.589 36.5436 191.432 38.3796 190.349 37.7024C189.177 36.9683 193.138 35.2025 196.287 37.3111C196.489 37.4466 196.797 38.174 196.614 38.2492C196.431 38.3245 195.864 38.4215 195.656 38.3027Z" fill="#187DDD"/>
<path d="M194.712 45.0014C193.792 45.5148 192.762 44.8543 192.653 43.8827C192.586 43.2841 192.97 42.2172 193.985 42.2406C194.369 42.249 195.01 42.7791 195.149 43.1269C195.312 43.5332 195.139 44.7623 194.712 45.0014Z" fill="#187DDD"/>
<path d="M180.338 47.4446C179.326 47.7105 178.69 46.9246 178.591 46.2189C178.514 45.6771 178.893 44.7106 179.637 44.5634C180.174 44.4564 180.942 45.0517 181.105 45.4731C181.311 46.0099 181.096 47.2456 180.34 47.4446H180.338Z" fill="#187DDD"/>
<path d="M189.423 53.3642L187.83 53.6853C187.472 53.7572 186.819 53.0164 186.878 52.6485L189.595 52.1836C189.923 52.1268 189.719 53.304 189.423 53.3642Z" fill="#187DDD"/>
<path d="M216.31 98.2773C216.201 98.585 215.714 98.9797 215.558 98.8977C215.353 98.7907 215.021 98.187 215.142 97.8442C215.87 95.7724 219.333 86.9766 221.009 86.0251C221.206 85.9147 221.595 86.7993 221.447 87.0669C219.62 90.3778 217.637 94.5032 216.31 98.2773Z" fill="#187DDD"/>
<path d="M211.513 105.632H202.201C201.903 105.632 201.387 105.211 201.285 105.059C201.149 104.855 201.798 104.316 202.085 104.316L211.271 104.325C211.461 104.325 211.951 104.681 212.102 104.783C212.253 104.885 211.696 105.631 211.513 105.631V105.632Z" fill="#187DDD"/>
<path d="M156.891 85.8639C158.476 84.8706 165.266 98.6094 163.916 98.8435C163.671 98.8853 163.107 98.591 163.01 98.3469C161.375 94.2617 159.379 90.3604 156.834 86.7702C156.704 86.5863 156.701 85.9826 156.891 85.8639Z" fill="#187DDD"/>
<path d="M231.449 21.4774C231.828 17.0009 237.089 16.6565 235.683 13.7418C235.365 13.0813 234.147 12.6733 233.385 12.7552C230.632 13.0529 231.84 17.1966 228.397 15.9909C227.257 15.5913 226.912 14.2117 227.425 12.9107C228.637 9.84726 231.93 8.67672 235.141 9.11985C237.62 9.46266 239.614 10.9359 240.232 13.2335C240.876 15.6281 239.796 17.9391 237.556 19.4123C233.912 21.8085 236.455 23.7399 233.566 23.8954C232.403 23.959 231.306 23.1731 231.45 21.4774H231.449ZM233.336 22.7065C234.303 23.4623 233.524 20.444 236.688 18.5544C238.643 17.3872 239.658 15.3839 239.01 13.3656C238.41 11.491 236.668 10.384 234.529 10.2386C231.93 10.0613 229.234 11.0195 228.482 13.685C228.38 14.0462 228.653 14.8722 228.967 14.9893C230.564 15.5863 230.049 11.9358 233.051 11.6215C234.541 11.466 235.999 11.8322 236.732 13.1432C237.708 14.8873 236.797 16.6632 235.245 17.7618C233.776 18.8019 231.527 21.2935 233.336 22.7082V22.7065Z" fill="#187DDD"/>
<path d="M233.246 24.5705C234.47 24.4685 235.579 25.3581 235.739 26.3113C235.984 27.7761 235.155 28.9015 233.989 29.1055C232.593 29.3513 231.39 28.5102 231.21 27.2092C231.041 25.9852 231.796 24.6926 233.247 24.5705H233.246ZM232.9 25.8999C232.455 26.0086 232.32 27.3597 232.69 27.639C233.002 27.8731 233.742 27.9567 234.093 27.7811C234.444 27.6056 234.61 26.639 234.44 26.2862C234.271 25.9333 233.487 25.7578 232.9 25.8999Z" fill="#187DDD"/>
</g>
<defs>
<clipPath id="clip0_264_8915">
<rect width="141" height="150" fill="white"/>
</clipPath>
<clipPath id="clip1_264_8915">
<rect width="102" height="150" fill="white" transform="translate(151)"/>
</clipPath>
</defs>
</svg>
